/* XPM */
static char *result[] = {
/* columns rows colors chars-per-pixel */
"64 64 234 2 ",
"   c #0C0909",
".  c #070809",
"X  c #180C0B",
"o  c #171413",
"O  c #18100D",
"+  c #361B0E",
"@  c #291814",
"#  c #331314",
"$  c #3B1E11",
"%  c #381A14",
"&  c #28110E",
"*  c #2D251B",
"=  c #382A19",
"-  c #352D26",
";  c #3A3328",
":  c #33312B",
">  c #421615",
",  c #441D13",
"<  c #5A1B1D",
"1  c #482D11",
"2  c #462916",
"3  c #43321B",
"4  c #4A3616",
"5  c #5C3C18",
"6  c #4E2A11",
"7  c #79361A",
"8  c #623417",
"9  c #482623",
"0  c #582C26",
"q  c #493926",
"w  c #533B26",
"e  c #4B3D32",
"r  c #68282A",
"t  c #75292A",
"y  c #6C3531",
"u  c #7F3434",
"i  c #6D312F",
"p  c #5B1C20",
"a  c #5E421A",
"s  c #7B5B19",
"d  c #7C521D",
"f  c #6B421B",
"g  c #584529",
"h  c #4A453A",
"j  c #5C4D34",
"k  c #534832",
"l  c #7A5323",
"z  c #684934",
"x  c #6B5535",
"c  c #70512F",
"v  c #7A6336",
"b  c #575144",
"n  c #695B45",
"m  c #755649",
"M  c #776546",
"N  c #796C56",
"B  c #6C6453",
"V  c #7B7566",
"C  c #883C1B",
"Z  c #872A2D",
"A  c #8E2D31",
"S  c #962E32",
"D  c #9B3435",
"F  c #873334",
"G  c #A22F33",
"H  c #A33235",
"J  c #AB3336",
"K  c #AD3438",
"L  c #A33B37",
"P  c #B33639",
"I  c #BC373B",
"U  c #BB393B",
"Y  c #B43838",
"T  c #C0363C",
"R  c #97471C",
"E  c #8A561A",
"W  c #8A591A",
"Q  c #83591C",
"!  c #93541E",
"~  c #A24D1E",
"^  c #A94F1E",
"/  c #AC561E",
"(  c #B15C1E",
")  c #96651E",
"_  c #B5631E",
"`  c #BB691E",
"'  c #B66A1E",
"]  c #9A4421",
"[  c #8A5A27",
"{  c #A44B20",
"}  c #AB5320",
"|  c #A9453A",
" . c #B8443D",
".. c #B55E21",
"X. c #93682A",
"o. c #A56A23",
"O. c #BE6B21",
"+. c #B66421",
"@. c #A67223",
"#. c #BA7922",
"$. c #B77624",
"%. c #C4761F",
"&. c #C27221",
"*. c #C77B23",
"=. c #C06B22",
"-. c #B33F41",
";. c #973D40",
":. c #9A4F45",
">. c #BD4542",
",. c #BA4944",
"<. c #B34E49",
"1. c #87724C",
"2. c #977A46",
"3. c #877458",
"4. c #8E7550",
"5. c #B26A4C",
"6. c #897B67",
"7. c #C24549",
"8. c #C94D4F",
"9. c #C44A4B",
"0. c #C3554A",
"q. c #C94E51",
"w. c #C74E50",
"e. c #CA5252",
"r. c #C95756",
"t. c #C4634D",
"y. c #C3744D",
"u. c #CC6A5C",
"i. c #CC7A5A",
"p. c #D05F64",
"a. c #CD7366",
"s. c #D27B6D",
"d. c #D17469",
"f. c #D16A67",
"g. c #CA8423",
"h. c #D18622",
"j. c #D48922",
"k. c #D88F27",
"l. c #D49E26",
"z. c #D79826",
"x. c #CA932C",
"c. c #DDA326",
"v. c #DCA329",
"b. c #E1A525",
"n. c #E1A826",
"m. c #E3A829",
"M. c #D69021",
"N. c #9A8459",
"B. c #A78747",
"V. c #B28F53",
"C. c #978769",
"Z. c #928976",
"A. c #B29B6A",
"S. c #B79A63",
"D. c #A79675",
"F. c #AC9369",
"G. c #BAA36F",
"H. c #CB8E54",
"J. c #D7AA4E",
"K. c #D4A456",
"L. c #CFA552",
"P. c #E7B755",
"I. c #E5B44D",
"U. c #D38C65",
"Y. c #D5976B",
"T. c #D88A78",
"R. c #D99777",
"E. c #C99068",
"W. c #C5A667",
"Q. c #D8A96A",
"!. c #D9B66B",
"~. c #DCB96D",
"^. c #D6B36C",
"/. c #C5A976",
"(. c #DBA775",
"). c #DCB972",
"_. c #DEBD7D",
"`. c #DAB479",
"'. c #CDB27A",
"]. c #E1BE7F",
"[. c #E1B37A",
"{. c #DEC07E",
"}. c #E0C17F",
"|. c #A69C85",
" X c #B79881",
".X c #BAA886",
"XX c #B7AC92",
"oX c #9F9981",
"OX c #DC9B84",
"+X c #CA9F82",
"@X c #DDBD81",
"#X c #D6BD8B",
"$X c #CDB491",
"%X c #E1BD81",
"&X c #E4B897",
"*X c #E0A991",
"=X c #C8BDA3",
"-X c #DEC181",
";X c #DFC48B",
":X c #DAC294",
">X c #DAC69A",
",X c #E2C487",
"<X c #E6CD9B",
"1X c #E8CD9C",
"2X c #E4C696",
"3X c #EAD09E",
"4X c #E5D09C",
"5X c #D6C7A7",
"6X c #DACEB2",
"7X c #EACBA3",
"8X c #E8C7A3",
"9X c #E9D2A3",
"0X c #E6D4A9",
"qX c #EAD4AA",
"wX c #E8D4A7",
"eX c #ECDBB4",
"rX c #EDDDBB",
"tX c #E4D7B7",
"yX c #F0DFBD",
"uX c #F0DAB7",
"iX c #EFE0BE",
"pX c #F0E0BE",
"aX c #F0DFC0",
"sX c #EEE1C2",
"dX c #EFE5C8",
"fX c #F1E3C2",
"gX c #F1E6CB",
"hX c #F2E9CE",
"jX c #F4EBD4",
"kX c #F6EEDA",
"lX c #F9EFDD",
"zX c #F7F0DD",
"xX c #FBF4E3",
"cX c None",
/* pixels */
"cXcXcXcXcXcXcXcXcXcXcXcXcXcXcXcXcXcXcXcXcXcXcXcXcXcXcXcXcXcXcXcXcXcXcXcXcXcXcXcXcXcXcXcXcXcXcXcXcXcXcXcXcXcXcXcXcXcXcXcXcXcXcXcX",
"cXcXcXcXcXcXcXcXcXcXcXcXcXcXcXcXcXcXcXcXcXcXcXcXcXcXcXcXcXcXcX: - : cXcXcXcXcXcXcXcXcXcXcXcXcXcXcXcXcXcXcXcXcXcXcXcXcXcXcXcXcXcX",
"cXcXcXcXcXcXcXcXcXcXcXcXcXcXcXcXcXcXcXcXcXcXcXcXcXcXcXcXcX: b =X5XoX- cXcXcXcXcXcXcXcXcXcXcXcXcXcXcXcXcXcXcXcXcXcXcXcXcXcXcXcXcX",
"cXcXcXcXcXcXcXcXcXcXcXcXcXcXcXcXcXcXcXcXcXcXcXcXcXcXcX: h =X6XfXsXtX6XZ.; cXcXcXcXcXcXcXcXcXcXcXcXcXcXcXcXcXcXcXcXcXcXcXcXcXcXcX",
"cXcXcXcXcXcXcXcXcXcXcXcXcXcXcXcXcXcXcXcXcXcXcXcXcX; h =X6XrXfXrXiXiXfXtX6X6.: cXcXcXcXcXcXcXcXcXcXcXcXcXcXcXcXcXcXcXcXcXcXcXcXcX",
"cXcXcXcXcXcXcXcXcXcXcXcXcXcXcXcXcXcXcXcXcXcXcXh b XXtXrXaXaXiXiXiXpXpXsXfXrX6XV h cXcXcXcXcXcXcXcXcXcXcXcXcXcXcXcXcXcXcXcXcXcXcX",
"cXcXcXcXcXcXcXcXcXcXcXcXcXcXcXcXcX1 4 = a a a n Z.5XfXaXaXpXiXiXiXiXiXiXrXrXrXXXC.g 4 4 4 4 1 2 cXcXcXcXcXcXcXcXcXcXcXcXcXcXcXcX",
"cXcXcXcXcXcXcXcXcXcXcXcXcXcXcX3 5 $.g.l.l.l.v.) 4 1.D.6XyXrXiXiXiXyXaXrXeX$XC.j a x.c.v.v.h.h.! 1 q cXcXcXcXcXcXcXcXcXcXcXcXcXcX",
"cXcXcXcXcXcXcXcXcXcXcXcXcXcXf o.&.h.M.b.b.b.c.c.z.Q a 1.>XpXiXiXpXpXpXuXG.x 5 $.v.c.n.c.b.z.h.*.O.E q cXcXcXcXcXcXcXcXcXcXcXcXcX",
"cXcXcXcXcXcXcXcXcXcXcXcXcX& o.&.=.h.j.z.b.b.c.c.v.v.x.l 4.>X0XrXpXeXqXG.x @.v.n.v.v.n.n.b.M.j.*.=.*.a cXcXcXcXcXcXcXcXcXcXcXcXcX",
"cXcXcXcXcXcXcXcXcXcXcXcXcXX o.&.=._ +.=.%.%.*.k.n.b.n.x.l 1.#X9X9X<XA.x o.c.b.c.c.g.*.*.&.=.` ( =.*.5 . cXcXcXcXcXcXcXcXcXcXcXcX",
"cXcXcXcXcXcXcXcXcXcXcXcXB = o./ ~ C { ( / / ( O.#.z.v.z.g.l 1.@X;XA.x o.k.c.b.g.O.( ( } / ^ ~ ~ ] O.5 b h cXcXcXcXcXcXcXcXcXcXcX",
"cXcXcXcXcXcXcXcXcX. B Z.=Xh d C C ^ ..=.O.=.=._ ( ` h.j.h.*.l x n c o.h.h.j.*._ ( ` =.O.=.O.} C C R 1 oXXXV ; cXcXcXcXcXcXcXcXcX",
"cXcXcXcXcXcXcXo B Z.5XfXtX; < C C } =.=.` ` =.=.=...` *.h.h._ Q Q ) #.h.j.&.( +.=.O.O.O.O.=...~ C 7 % Z.fXiX|.Z.: cXcXcXcXcXcXcX",
"cXcXcXcXcXo b oX=XdXiXiXtXe 8 C ] { =.` =.=.=.` ` =._ ( %.` #.j.n.z.` O.=.( ` =.O.O.=.O.` =.( { C C $ Z.fXsXfXtX|.Z.* cXcXcXcXcX",
"cXcXcXo b oX=XfXsXaXsXsXtXF.2 7 ] { ( O.O.O.=.` =.=.=.+.( %.j.j.z.b.j.` ( +.O.O.O.O.O.O.=.+.^ ~ C 6 n >XsXsXsXsXdXtX|.Z.@ cXcXcX",
"cXo ; |.=XpXpXiXiXiXiXiXiX;XF.= 1 C ] { { ~ ~ ~ { { } { ^ *.g.z.z.z.z.$.{ { } { ^ R ~ ~ } R R 7 % x '.qXsXiXiXiXrXpXfX6XXXV o cX",
"cX* C.jXlXfXpXiXiXiXiXiXiXeX;XA.4.2 $ $ = + $ $ 8 7 C C R R R E ! ! ! R C C C 7 6 $ + = = $ $ j F.'.7XrXiXiXiXiXiXfXsXhXxXtXb cX",
"cX* G.,X9XkXjXfXsXiXiXiXiXiXeX2X,XG.A.A.A.S.F.C.g + E +.+...R 7 , R ^ +.+.+.5 + 1.C.D.A.A.S.A./.,X1XrXfXyXiXiXyXsXgXxXhXeXqXN cX",
"cX* S.~.!.-X9XzXhXdXiXiXiXiXiXeXqX2X,X,X_.'.1.3 [ $.*.h.*.&.+.7 2 ~ ` %.h.h.#.@.g g A.'.,X,X;X4XeXrXiXrXpXiXfXgXkXjXqXwX1X3XN cX",
"cX* S.~.!.^.).@X0XkXhXdXiXiXiXsXsXiX0XXX4.q c ) @.h.j.h.j.*.E x 4.8 O.h.g.h.h.#.) [ g j G.5XeXiXfXrXaXaXsXdXkXkXeX9X<X1X1X9XN cX",
"cX* W.~.!.!.!.!.^.{.iXhXdXdXiXiXiX5XD.g v L.X.1 4 [ g.h.$.) x $XqXC.l @.g.h.#.a 1 5 V.B.g B XX6XfXfXsXdXkXkXtX9X1X1X1X1X1X3XN cX",
"cX* B.^.~.!.^.!.~.!.).-XiXjXdX5XoXh x L.J.P.J.L.J.5 l ) 5 k $XeXrX0XN.; l @.4 B.J.J.I.I.J.B.h N XX6XjXkXtX9X1X<X1X<X3X1X3X:Xn cX",
"cX. * N.S.!.~.!.!.^.^.^.^.{.5X; j L.J.I.I.I.I.L.B.j ; k G.:XeXpXrXrX0X#X3.3 ; X.B.I.P.I.P.I.J.B.= Z.sX0X1X1X<X<X1X<X9X:XD.N   cX",
"cXcXcXO 0 N.V.[.~.!.!.!.!.!.G.4 S.P.P.P.P.L.B.x k F.;X:X>XpXiXiXiXfXpXyX0X:X#Xx g X.V.P.P.{.P.P.v N 3X<X1X1X1X1X3X:XD.3.#   cXcX",
"cXcXcX@ t > g 4.S.{.!.!.!.~.W.= #.z.P.K.X.v k N.;X>X0XiXiXsXiXiXiXrXpXrXrXrX9X:X$Xx j X.B.I.I.n.s N 3X1X1X<X9X<XD.3.2 r r . cXcX",
"cXcXcX# S G t $ z 1.S.{.^.!.W.3 #.j.k.W * C.tX4XqXpXiXiXiXiXiXiXiXiXiXfXiXiXpXpX9X0X>Xb = l.n.n.s N 3X1X1X<XD.3.0 p H P t   cXcX",
"cXcXcX& S G G G t $ x X.L.{.S.2 #.h.h.E j ,XiXdXjXdXiXiXiXiXiXiXiXiXiXrXiXpXsXhXjXhXgXXXa l.c.n.s N 3X4XD.3.0 < D P P Y r   cXcX",
"cXcXcX# D G G G G | [ z n 1.S.3 #.h.j.W j ~.!.<XiXgXjXsXiXiXiXiXiXrXiXiXsXhXkXhXfXwX3X.X4 l.b.n.s N G.V x x 5.P K P K U t   cXcX",
"cXcXcX# J K H G | H.K.K.[ 0 g * #.j.h.E j ~.!.^.!.<XeXdXjXdXiXiXpXsXiXdXkXhXfX9X<X1X3XG.4 z.b.n.s ; z z W.~.!.i.P P >.7.Z   cXcX",
"cXcXcX# K T P  .H.L.L.K.y.L p + #.j.k.W j !.!.!.!.!.~.4XeXhXkXiXiXgXzXjXfXqX<X<X<X1X3X.X4 v.b.n.s # A 0.Q.~.!.^.i.,.w.e.F   cXcX",
"cXcXcX# K T 0.Y.Q.^.K.5.L G A % #.h.h.W j !.!.!.!.!.!.!.).4XeXkXzXjXfXqX1X<X<X<X1X4X3X.X3 v.b.b.s < Y J <.Q.,X2X2XR.e.q.u   cXcX",
"cXcXcX# J 0.Y.{.%X[.H. .G G A + %.j.M.W @ 4.!.!.!.!.!.!.!.^.).eXjXeX<X1X<X<X<X<X1X<X#Xb = v.b.n.s < J J -.u.2XeXqX7XT.r.F   cXcX",
"cXcXcX# <.Y.,X}.%XU.>.I Y P S + #.j.j.E - v w 4.^.!.~.!.!.!.!.-XiX1X1X1X<X4X<X<X&XB j M 4 l.b.n.s < >.7.8.q.s.&XqXqX7XT.F   cXcX",
"cXcXcX= Y.{.}.].U.7.I I I T G $ $.h.j.E g V.[ 0 q F.!.!.!.!.!.;XsX1X1X1X<X2X:XM w i 2.F.4 l.b.n.Q r 8.8.q.8.w.s.2XqXqX7X6.  cXcX",
"cXcXcX; '.{.}.Y. .U U I I I H $ #.j.j.E g y.L Z r 0 q V.^.!.~.,XsX1X1X2X:X3.e i Z L 0.V.4 l.b.b.s r e.8.q.q.w.e.s.8XqXqXC.  cXcX",
"cXcXcX; '.].U. .U U U U T U L $ #.j.j.W > L G G G Z t 6 g S.W.,XfX<X#XC.e i Z H P Y Y D 1 l.b.n.s i e.q.q.q.q.8.e.s.8XqXZ.  cXcX",
"cXcXcX; '.Y. .T U T I I U >.E.2 #.j.j.Q > D J G G G | 5.2.w j /.6XC.q M S.5.Y J Y Y Y Z 1 l.b.n.s M T.e.q.q.q.q.q.q.s.7XC.. cXcX",
"cXcXcX; E. .U I I U T U 7.Y./.q #.j.j.W > J I J G L 5.K.H.V.1.9 9 n V.Q.~.Q.5.Y Y 7.0.A 1 l.b.b.s V 8Xs.e.q.e.q.q.q.e.T.6.  cXcX",
"cXcXcX#  .I U I I T U  .U.]./.3 #.j.j.W > J I I  .H.K.L.L.H.| D <.D y.!.~.].(.a.0.8.9.Z 1 l.b.n.s N qX8Xs.e.8.q.q.q.e.r.F   cXcX",
"cXcXcX# K I I I U U >.Y.].}./.3 #.j.j.W , J I  .U.].).Q.H.| G -.r.-.K t.(.2X9X2Xs.e.q.A 1 l.b.n.s V eXqX8Xs.e.q.q.q.q.e.F   cXcX",
"cXcXcX# Y I U I T  .U.}._.].S.2 #.j.j.W > J  .U._.{.{.Y. .J G L r.-.-.,.T.&XwX0X8Xs.w.A 1 l.b.n.s m 7X0XqX8Xs.e.q.q.q.e.F   cXcX",
"cXcXcX# P -.I I  .U._.].].Y.| $ #.j.j.W % P U.[.{.].R.,.U I I >.p.-.q.q.e.OX8X0XqX8Xd.A 1 l.b.b.s r T.8XqXqX8Xd.8.q.q.e.F   cXcX",
"cXcXcX# J I I >.U.].{.%XR.0.L 2 #.j.j.E 2 H.].}.{.(.0.I T U I 7.p.q.q.q.q.q.T.8XqXqX2X:.1 l.b.b.s r e.T.9XqXqX8Xs.8.q.e.u   cXcX",
"cXcXcX# P I >.U.}.}.,X(.0.U H $ #.j.j.E w Q.,X].Q.0.I I I I T 7.p.q.q.q.q.q.e.OX7XqX3XA.4 l.b.b.s r e.0.T.8XqXqX8Xd.q.e.u   cXcX",
"cXcXcX# P U U.].}.}.Y.0.Y U H , #.j.j.E g Q.].(.0.I I I I I I <.s.8.q.q.q.q.q.r.R.7X3XF.4 l.b.b.s r e.q.w.OX7X0XqX8Xs.e.u   cXcX",
"cXcXcX#  .U.]._.}.Y.0.I I I H , #.h.j.E w ^.Y.0.I U I I I I U T.8Xd.q.q.q.q.q.q.e.OX2XS.4 l.b.b.s r q.q.q.e.T.8XqXqX2Xs.F   cXcX",
"cXcXcXX c _.{._.Q.0.I I I I H , #.j.k.E g K.0.T I I I I I  .U.,XaX&Xf.q.e.q.q.q.w.r.T.A.4 l.b.b.s r q.q.q.q.e.OX7XqXtX+X9   cXcX",
"cXcXcXcXq n N.Q.w.I I I I U H , #.h.j.W 4 ,.I I U I I I U i._.2XrXqX&Xu.8.q.q.q.8.8.r.:.4 l.b.n.Q i q.w.q.q.q.r.OX$XV B cXcXcXcX",
"cXcXcXcXcXcXh z Z U U U I T H $ #.j.j.W > K U I U I U U i._._.2XrX0XqX&Xa.8.8.q.e.e.8.A 1 c.b.n.s r e.q.q.e.q.w.i B cXcXcXcXcXcX",
"cXcXcXcXcXcXcXcX9 < A U I U 5.3 #.j.j.W > J U I U U U i.).,X}.[.*XqXwXqX&Xu.8.q.e.8.9.A 1 l.n.n.d n d.e.q.<.i 0 cXcXcXcXcXcXcXcX",
"cXcXcXcXcXcXcXcXcXcX> > 5.U./.q #.j.j.W > J U I I U i.%X}.,X(.u.f.OXqXqXqX&Xf.q.e.e.0.Z 1 l.c.c.s n *Xa.i 9 cXcXcXcXcXcXcXcXcXcX",
"cXcXcXcXcXcXcXcXcXcXcXcX- j F.= $.h.j.W % K U U U i.].].{.`.t.>.p.r.OX0XqXqX&Xu.8.e.8.A 1 l.c.c.s : j o cXcXcXcXcXcXcXcXcXcXcXcX",
"cXcXcXcXcXcXcXcXcXcXcXcXcXcX; * $.g.j.W > K I U i._.{.}.[.0.I 7.p.w.u.OX9XqXqX&Xu.8.8.A 1 v.c.l.l   cXcXcXcXcXcXcXcXcXcXcXcXcXcX",
"cXcXcXcXcXcXcXcXcXcXcXcXcXcXcXcX3 5 #.d > K U i.[.,X{.[.t.U I 7.p.q.8.r.OXeXqXqX*Xu.8.A 1 x.@.3 q cXcXcXcXcXcXcXcXcXcXcXcXcXcXcX",
"cXcXcXcXcXcXcXcXcXcXcXcXcXcXcXcXcXcX= @ # H i.`.@X@X(.t.U T I 7.p.q.q.8.r.OXqXqXqX&Xu.Z O = = cXcXcXcXcXcXcXcXcXcXcXcXcXcXcXcXcX",
"cXcXcXcXcXcXcXcXcXcXcXcXcXcXcXcXcXcXcXcXX m /.`.].`.r.I I T T 7.p.e.q.q.8.r.*X9X0X>X X- X cXcXcXcXcXcXcXcXcXcXcXcXcXcXcXcXcXcXcX",
"cXcXcXcXcXcXcXcXcXcXcXcXcXcXcXcXcXcXcXcXcXcX* 3./.t.U I -.I T 7.p.w.q.q.8.q.r.+XXXb : cXcXcXcXcXcXcXcXcXcXcXcXcXcXcXcXcXcXcXcXcX",
"cXcXcXcXcXcXcXcXcXcXcXcXcXcXcXcXcXcXcXcXcXcXcXcX@ u S I T T -.7.p.q.q.q.q.,.:.0 - cXcXcXcXcXcXcXcXcXcXcXcXcXcXcXcXcXcXcXcXcXcXcX",
"cXcXcXcXcXcXcXcXcXcXcXcXcXcXcXcXcXcXcXcXcXcXcXcXcXX & Z S I T 7.p.e.e.<.;.r X cXcXcXcXcXcXcXcXcXcXcXcXcXcXcXcXcXcXcXcXcXcXcXcXcX",
"cXcXcXcXcXcXcXcXcXcXcXcXcXcXcXcXcXcXcXcXcXcXcXcXcXcXcXX # Z S 9.p.<.;.i X cXcXcXcXcXcXcXcXcXcXcXcXcXcXcXcXcXcXcXcXcXcXcXcXcXcXcX",
"cXcXcXcXcXcXcXcXcXcXcXcXcXcXcXcXcXcXcXcXcXcXcXcXcXcXcXcXcXo # F :.i O cXcXcXcXcXcXcXcXcXcXcXcXcXcXcXcXcXcXcXcXcXcXcXcXcXcXcXcXcX",
"cXcXcXcXcXcXcXcXcXcXcXcXcXcXcXcXcXcXcXcXcXcXcXcXcXcXcXcXcXcXcXo o cXcXcXcXcXcXcXcXcXcXcXcXcXcXcXcXcXcXcXcXcXcXcXcXcXcXcXcXcXcXcX",
"cXcXcXcXcXcXcXcXcXcXcXcXcXcXcXcXcXcXcXcXcXcXcXcXcXcXcXcXcXcXcXcXcXcXcXcXcXcXcXcXcXcXcXcXcXcXcXcXcXcXcXcXcXcXcXcXcXcXcXcXcXcXcXcX"
};
