/* XPM */
static char *result[] = {
/* columns rows colors chars-per-pixel */
"64 64 178 2 ",
"   c #070706",
".  c #090705",
"X  c #0B0B09",
"o  c #090804",
"O  c #120C07",
"+  c #160E0B",
"@  c #171106",
"#  c #1A1307",
"$  c #12110D",
"%  c #1F1408",
"&  c #1F1806",
"*  c #131212",
"=  c #191510",
"-  c #23160A",
";  c #2C170E",
":  c #241B09",
">  c #2C180F",
",  c #351E0F",
"<  c #2B1B10",
"1  c #331E14",
"2  c #2B220E",
"3  c #3B2D0C",
"4  c #2B2313",
"5  c #342016",
"6  c #372716",
"7  c #3E3320",
"8  c #4C390E",
"9  c #422415",
"0  c #522F1E",
"q  c #54301F",
"w  c #563813",
"e  c #513F22",
"r  c #493B23",
"t  c #544013",
"y  c #5A4414",
"u  c #644B13",
"i  c #684E14",
"p  c #6D5214",
"a  c #715314",
"s  c #7B5E1A",
"d  c #744C18",
"f  c #7E601C",
"g  c #7C542A",
"h  c #7F6322",
"j  c #DA1B25",
"k  c #DB1E28",
"l  c #DB222B",
"z  c #DD2B34",
"x  c #8E581F",
"c  c #80621C",
"v  c #8B651A",
"b  c #8F6B1C",
"n  c #956C1C",
"m  c #9F6D1D",
"M  c #94651C",
"N  c #9C751D",
"B  c #9B741B",
"V  c #A06E1E",
"C  c #A4721F",
"Z  c #A67C1E",
"A  c #A97E1E",
"S  c #954F2C",
"D  c #8F5A23",
"F  c #995E21",
"G  c #9B542F",
"H  c #97512D",
"J  c #9B5430",
"K  c #A15731",
"L  c #836623",
"P  c #8E6D24",
"I  c #9F6123",
"U  c #99622D",
"Y  c #9E7720",
"T  c #916130",
"R  c #A06224",
"E  c #A3682A",
"W  c #AE7623",
"Q  c #AE7A24",
"!  c #AE772D",
"~  c #A17A23",
"^  c #B27D25",
"/  c #B37F28",
"(  c #A36730",
")  c #A46B33",
"_  c #A96F37",
"`  c #AA7236",
"'  c #DF3841",
"]  c #E03D46",
"[  c #A86F43",
"{  c #BE6D44",
"}  c #BE6F48",
"|  c #AC7645",
" . c #BF714B",
".. c #E1444C",
"X. c #E2494F",
"o. c #E14D52",
"O. c #E2555B",
"+. c #C06E44",
"@. c #C47147",
"#. c #C5734A",
"$. c #C77851",
"%. c #E55A64",
"&. c #E56266",
"*. c #E6656C",
"=. c #E97579",
"-. c #E47679",
";. c #AB811F",
":. c #AD8222",
">. c #B28622",
",. c #BA8727",
"<. c #B58A23",
"1. c #BB8D25",
"2. c #B5822C",
"3. c #BB8F2A",
"4. c #BE9126",
"5. c #AF8939",
"6. c #AE8936",
"7. c #B78839",
"8. c #BB933C",
"9. c #B99136",
"0. c #C08F28",
"q. c #C29327",
"w. c #C4952A",
"e. c #C7982C",
"r. c #C49730",
"t. c #C69833",
"y. c #C69C3C",
"u. c #C99F3E",
"i. c #C1973C",
"p. c #CAA03F",
"a. c #B78641",
"s. c #BD8E4D",
"d. c #B28749",
"f. c #BD934D",
"g. c #B58C50",
"h. c #BE9850",
"j. c #A98847",
"k. c #C99F41",
"l. c #C0924F",
"z. c #C59A4A",
"x. c #C29450",
"c. c #C59A5E",
"v. c #CBA041",
"b. c #CDA34B",
"n. c #CEA555",
"m. c #CFA95B",
"M. c #D0A653",
"N. c #D2AA5B",
"B. c #D1A859",
"V. c #D8B273",
"C. c #EA7E80",
"Z. c #E68685",
"A. c #E9978E",
"S. c #EC8B90",
"D. c #EA9E93",
"F. c #D2AA84",
"G. c #DEBA87",
"H. c #D3A592",
"J. c #D6B09A",
"K. c #E4B18F",
"L. c #E6B290",
"P. c #EDADA3",
"I. c #F1A2A5",
"U. c #F3AAAE",
"Y. c #ECBAAD",
"T. c #EDB0A5",
"R. c #F2AEB2",
"E. c #E3C393",
"W. c #E3C398",
"Q. c #E7C4A9",
"!. c #EECDB6",
"~. c #EECFB8",
"^. c #EED1CA",
"/. c #F2D4C6",
"(. c #F4D7CD",
"). c #F6D9D1",
"_. c #F4D2D2",
"`. c None",
/* pixels */
"`.`.`.`.`.`.`.`.`.`.`.`.`.`.`.`.`.`.`.`.`.`.`.`.`.`.`.`.`.`.`.`.`.`.`.`.`.`.`.`.`.`.`.`.`.`.`.`.`.`.`.`.`.`.`.`.`.`.`.`.`.`.`.`.",
"`.`.`.X X X X X X X X X X X X X o X X X X X X X $ X X X X X X X X X o X X X X X X O X = * X X . X X X X X X X X X X X X X X `.`.",
"`.`.`.# i p s c c c c c f x c c f f f x f c c c L c f c c c c f c c x f c c f c c c L c c c c f c c c c f c x a a a a p i @ `.`.",
"`.`.`.: Z ;.>.1.e.e.e.e.q.e.e.e.e.e.q.e.e.e.e.e.t.e.e.e.e.w.e.e.e.e.4.e.e.e.e.e.e.t.t.e.e.e.e.e.w.e.e.e.e.e.4.1.;.;.;.;.N : `.`.",
"`.`.`.4 y B Z ;.<.w.w.w.q.e.q.e.w.q.w.w.q.w.r.e.e.q.w.w.q.w.w.w.q.w.w.w.q.q.q.q.w.w.w.w.q.w.w.w.q.w.w.w.q.q.0.>.>.Q Z Z B : `.`.",
"`.`.`.`.$ y b Z ;.<.q.q.q.q.q.4.q.e.q.w.r.r.e.w.e.q.w.w.w.q.w.q.w.w.q.w.q.e.q.e.q.w.q.q.w.w.q.w.w.q.w.e.u.p.z.i.p.k.8.8.5.: `.`.",
"`.`.`.`.`.* t P 9.9.y.p.p.p.p.p.u.u.u.k.b.k.u.u.p.p.y.v.p.p.p.p.u.u.p.p.u.u.p.p.u.u.u.u.u.u.k.k.u.p.p.p.z.s.s.l.s.s.s.s.j.< `.`.",
"`.`.`.`.6 `.  e l.l.x.x.l.x.x.z.x.x.x.x.x.x.x.l.l.z.x.x.f.x.l.l.l.l.x.l.l.l.f.z.x.x.x.x.x.l.x.x.l.l.l.l.! V R E I F F F x - `.`.",
"`.`.`.2 b 3 % w R R R I I I I I F R R I I I I I I I I I I I I I R R M I V ( [ [ R I I I F R R R R R I I Q r.r.q.q.<.;.Z B : `.`.",
"`.`.`.: N N N :.1.q.0.0.0.0.0.0.0.3.0.0.0.0.0.0.0.0.0.0.0.0.0.0.q.0.0.0.1.G._.Y.c.w.0.0.0.0.0.0.0.0.3.3.r.r.e.q.q.w.<.Q B & `.`.",
"`.`.`.: ~ :.3.r.e.r.e.r.w.e.e.w.w.w.q.e.q.q.w.q.w.w.q.q.w.w.w.w.w.t.e.w.w.E.U.o.Y.B.t.0.q.q.q.q.w.w.r.r.e.w.q.w.w.4.<.~ N : `.`.",
"`.`.`.4 h.n.n.n.n.n.n.n.n.n.n.r.w.e.e.e.t.t.t.t.t.e.t.t.t.e.t.y.y.y.t.t.t.E.I.l ..P.V.e.e.w.e.e.e.r.r.r.r.w.e.e.e.<.:.:.Y : `.`.",
"`.`.`.- U ( ( ( ( ( ( ( ( ( _ x.M.M.M.N.Q.~.!.!.!.!.!.!.~.~.~.~.!.!.!.!.!.).I.l j ] A.W.B.M.M.M.n.B.n.B.B.M.n.n.n.n.z.n.f.4 `.`.",
"`.`.`.: M B V m C ^ ^ 2.2./ ^ ` ) ) _ | /.S.%.%.%.%.%.%.%.*.%.%.%.%.%.%.%.%...l k k ] Z.Q.| ) ) ) ) ) ) ) ) ) _ ) _ _ T r `.`.`.",
"`.`.`.: N :.Z :.4.w.r.t.e.e.w.^ ^ W W 7./.%.j j j j j j j l k j j j j j j j j k k k j ] =.H.a.^ ^ ^ ^ Q Q Q Q Q V V d 2 `.`.`.`.",
"`.`.`.: N ;.Z <.4.e.r.w.q.q.q.e.q.e.q.u./.*.j k k j j j k k k k k k k k k k k k k k k j z =.L.B.q.q.w.w.w.w.w.w.,.>.v t . `.`.`.",
"`.`.`.: N Z Z :.3.e.4.w.q.w.e.q.q.q.0.y./.&.j k k k k j k k j j j k k k l k k k k k k j z =.K.B.q.w.w.q.w.q.w.w.q.>.Q n 8 @ `.`.",
"`.`.`.2 6.8.8.8.z.k.v.v.v.v.p.k.v.p.u.M.(.%.j j j j j j j j j j j j j j j j j j k k k ' C.Q.N.k.u.u.u.u.v.v.v.k.p.i.8.8.6.4 `.`.",
"`.`.`.4 d.l.f.l.x.s.l.l.f.l.l.l.l.f.l.c.(.S.%.%.%.%.%.%.%.%.%.%.%.%.%.%.%.%...l k k o.C.J.x.f.f.l.l.x.l.x.s.s.x.l.x.x.x.g.4 `.`.",
"`.`.`.: x F F F F I I R R R R I R R V ( Y.!.!.!.!.!.!.!.~.~.~.~.!.!.!.!.!.).I.l l o.D.F.E R I I F I R R I I R R I F F F D % `.`.",
"`.`.`.: N Z Z Z :.1.0.q.q.q.0.0.w.4.e.4.e.r.t.t.t.t.t.t.t.t.t.r.t.r.t.t.r.W.I.z o.T.V.w.4.4.r.w.w.0.3.q.0.w.w.3.3.<.:.C N : `.`.",
"`.`.`.: C ;.Z >.1.:.0.w.w.q.w.e.e.4.e.4.e.r.w.w.w.q.w.0.w.w.w.w.e.q.w.w.q.E.R.O.Y.m.r.w.w.w.e.4.w.w.w.q.w.w.q.q.w.4.<.Z N : `.`.",
"`.`.`.2 b Y :.<.w.r.w.r.r.w.e.e.w.r.w.t.y.r.w.w.w.w.w.w.w.w.w.q.w.q.q.w.q.G.).Y.b.e.w.e.w.w.w.w.e.w.r.e.w.r.w.r.w.w.3.:.N : `.`.",
"`.`.`.o 2 j.n.n.B.n.n.B.n.n.M.M.n.n.m.m.n.n.k.w.w.w.w.w.w.w.q.e.w.e.q.e.w.k.n.b.e.w.z.n.n.n.m.n.n.n.n.n.n.n.n.n.n.n.n.n.f.4 `.`.",
"`.`.`.`.`.7 g ) ) ( ( ) ( ) ) E _ [ ) ) ) ( 7.B.M.M.M.M.M.M.M.M.M.M.B.M.M.M.M.b.n.M.7.( ( ) ( ( ) ) U ) ) ) ) ) ) U U ) U - `.`.",
"`.`.`.  $ u v C m m m m C ^ ^ ^ / / Q Q ^ ^ ! _ _ _ _ _ _ _ _ _ _ _ _ _ _ _ _ _ _ _ ! ^ ^ ^ ^ ^ Q >.2.2.Q ^ Q Q ~ Q W m n : `.`.",
"`.`.`.@ y N ;.Z Z ;.<.<.4.q.w.w.w.w.w.w.w.q.1.C W W W W W W W W W W W W W W W W W W <.e.w.w.w.w.w.w.w.t.e.w.w.w.1.<.:.;.N : `.`.",
"`.`.`.: N ;.Z Z Z ;.4.w.q.e.q.q.w.w.w.w.w.w.w.e.w.q.w.e.q.e.q.e.w.w.w.w.w.w.w.w.e.w.w.4.w.w.w.q.q.r.t.w.w.q.w.q.1.:.Z Z N : `.`.",
"`.`.`.2 N ;.;.;.;.;.q.e.e.w.e.e.e.e.e.e.w.e.e.w.e.e.e.e.w.e.e.e.w.e.w.e.e.e.q.e.e.e.q.e.e.e.e.e.t.t.e.e.e.e.w.,.;.A Z ;.N : `.`.",
"`.`.`.# u p p p p p s f f f f f f f f f f f f f x s f f c c L f f f f s x f f f x c f f s s L L h h f s f h s p p p p p u $ `.`.",
"`.`.`.          o     . o               o               $ 5 > > ; ; ; ; o     .             X X X             . . .         `.`.",
"`.`.`.`.`.`.`.`.`.`.`.`.`.`.`.`.`.`.`.`.`.`.`.`.`.`.`.`.5 S S S S S S S ; `.`.`.`.`.`.`.`.`.`.`.`.`.`.`.`.`.`.`.`.`.`.`.`.`.`.`.",
"`.`.`.`.`.`.`.`.`.`.`.`.`.`.`.`.`.`.`.`.`.`.`.`.`.`.`.`.> J K K K K K G ; `.`.`.`.`.`.`.`.`.`.`.`.`.`.`.`.`.`.`.`.`.`.`.`.`.`.`.",
"`.`.`.`.`.`.`.`.`.`.`.`.`.`.`.`.`.`.`.`.`.`.`.`.`.`.`.`.> K _ +.+.+.{ { 1 `.`.`.`.`.`.`.`.`.`.`.`.`.`.`.`.`.`.`.`.`.`.`.`.`.`.`.",
"`.`.`.`.`.`.`.`.`.`.`.`.`.`.`.`.`.`.`.`.`.`.`.`.`.`.`.`.> K { @.@.@.@.{ 1 `.`.`.`.`.`.`.`.`.`.`.`.`.`.`.`.`.`.`.`.`.`.`.`.`.`.`.",
"`.`.`.`.`.`.`.`.`.`.`.`.`.`.`.`.`.`.`.`.`.`.`.`.`.`.`.`.; J { @.@.@.@.+.1 `.`.`.`.`.`.`.`.`.`.`.`.`.`.`.`.`.`.`.`.`.`.`.`.`.`.`.",
"`.`.`.`.`.`.`.`.`.`.`.`.`.`.`.`.`.`.`.`.`.`.`.`.`.`.`.`.> J +.@.@.@.@.{ 1 `.`.`.`.`.`.`.`.`.`.`.`.`.`.`.`.`.`.`.`.`.`.`.`.`.`.`.",
"`.`.`.`.`.`.`.`.`.`.`.`.`.`.`.`.`.`.`.`.`.`.`.`.`.`.`.`.> J +.@.@.@.@.{ 1 `.`.`.`.`.`.`.`.`.`.`.`.`.`.`.`.`.`.`.`.`.`.`.`.`.`.`.",
"`.`.`.`.`.`.`.`.`.`.`.`.`.`.`.`.`.`.`.`.`.`.`.`.`.`.`.`.> J { @.@.@.@.{ 5 `.`.`.`.`.`.`.`.`.`.`.`.`.`.`.`.`.`.`.`.`.`.`.`.`.`.`.",
"`.`.`.`.`.`.`.`.`.`.`.`.`.`.`.`.`.`.`.`.`.`.`.`.`.`.`.`.> J { @.@.@.#.@.6 `.`.`.`.`.`.`.`.`.`.`.`.`.`.`.`.`.`.`.`.`.`.`.`.`.`.`.",
"`.`.`.`.`.`.`.`.`.`.`.`.`.`.`.`.`.`.`.`.`.`.`.`.`.`.`.`.> J +.@.@.@.#. .5 `.`.`.`.`.`.`.`.`.`.`.`.`.`.`.`.`.`.`.`.`.`.`.`.`.`.`.",
"`.`.`.`.`.`.`.`.`.`.`.`.`.`.`.`.`.`.`.`.`.`.`.`.`.`.`.`.> J { @.@.@.#. .1 `.`.`.`.`.`.`.`.`.`.`.`.`.`.`.`.`.`.`.`.`.`.`.`.`.`.`.",
"`.`.`.`.`.`.`.`.`.`.`.`.`.`.`.`.`.`.`.`.`.`.`.`.`.`.`.`.> J { @.@.@.@.{ 1 `.`.`.`.`.`.`.`.`.`.`.`.`.`.`.`.`.`.`.`.`.`.`.`.`.`.`.",
"`.`.`.`.`.`.`.`.`.`.`.`.`.`.`.`.`.`.`.`.`.`.`.`.`.`.`.`.> J +.@.@.@.@.{ 1 `.`.`.`.`.`.`.`.`.`.`.`.`.`.`.`.`.`.`.`.`.`.`.`.`.`.`.",
"`.`.`.`.`.`.`.`.`.`.`.`.`.`.`.`.`.`.`.`.`.`.`.`.`.`.`.`.> G { @.@.@.@.{ 1 `.`.`.`.`.`.`.`.`.`.`.`.`.`.`.`.`.`.`.`.`.`.`.`.`.`.`.",
"`.`.`.`.`.`.`.`.`.`.`.`.`.`.`.`.`.`.`.`.`.`.`.`.`.`.`.`.> G +.@.@.@.} { 1 `.`.`.`.`.`.`.`.`.`.`.`.`.`.`.`.`.`.`.`.`.`.`.`.`.`.`.",
"`.`.`.`.`.`.`.`.`.`.`.`.`.`.`.`.`.`.`.`.`.`.`.`.`.`.`.`.> J +.@.@.@.@.{ 1 `.`.`.`.`.`.`.`.`.`.`.`.`.`.`.`.`.`.`.`.`.`.`.`.`.`.`.",
"`.`.`.`.`.`.`.`.`.`.`.`.`.`.`.`.`.`.`.`.`.`.`.`.`.`.`.`.> J { @.@.@.@.{ 1 `.`.`.`.`.`.`.`.`.`.`.`.`.`.`.`.`.`.`.`.`.`.`.`.`.`.`.",
"`.`.`.`.`.`.`.`.`.`.`.`.`.`.`.`.`.`.`.`.`.`.`.`.`.`.`.`.> J +.@.@.@.@.{ 1 `.`.`.`.`.`.`.`.`.`.`.`.`.`.`.`.`.`.`.`.`.`.`.`.`.`.`.",
"`.`.`.`.`.`.`.`.`.`.`.`.`.`.`.`.`.`.`.`.`.`.`.`.`.`.`.`.> J { #.@.@.@.{ 1 `.`.`.`.`.`.`.`.`.`.`.`.`.`.`.`.`.`.`.`.`.`.`.`.`.`.`.",
"`.`.`.`.`.`.`.`.`.`.`.`.`.`.`.`.`.`.`.`.`.`.`.`.`.`.`.`.> J +.@.@.@.@.{ 1 `.`.`.`.`.`.`.`.`.`.`.`.`.`.`.`.`.`.`.`.`.`.`.`.`.`.`.",
"`.`.`.`.`.`.`.`.`.`.`.`.`.`.`.`.`.`.`.`.`.`.`.`.`.`.`.`.> J { @.@.@.#.{ 1 `.`.`.`.`.`.`.`.`.`.`.`.`.`.`.`.`.`.`.`.`.`.`.`.`.`.`.",
"`.`.`.`.`.`.`.`.`.`.`.`.`.`.`.`.`.`.`.`.`.`.`.`.`.`.`.`.> J { @.@.@.@.{ 1 `.`.`.`.`.`.`.`.`.`.`.`.`.`.`.`.`.`.`.`.`.`.`.`.`.`.`.",
"`.`.`.`.`.`.`.`.`.`.`.`.`.`.`.`.`.`.`.`.`.`.`.`.`.`.`.`.> J +.@.@.@.+.{ 1 `.`.`.`.`.`.`.`.`.`.`.`.`.`.`.`.`.`.`.`.`.`.`.`.`.`.`.",
"`.`.`.`.`.`.`.`.`.`.`.`.`.`.`.`.`.`.`.`.`.`.`.`.`.`.`.`.> J +.@.@.@.#.{ 1 `.`.`.`.`.`.`.`.`.`.`.`.`.`.`.`.`.`.`.`.`.`.`.`.`.`.`.",
"`.`.`.`.`.`.`.`.`.`.`.`.`.`.`.`.`.`.`.`.`.`.`.`.`.`.`.`.> J +.@.@.@.@.} 1 `.`.`.`.`.`.`.`.`.`.`.`.`.`.`.`.`.`.`.`.`.`.`.`.`.`.`.",
"`.`.`.`.`.`.`.`.`.`.`.`.`.`.`.`.`.`.`.`.`.`.`.`.`.`.`.`.> J +.+.@.@.@. .5 `.`.`.`.`.`.`.`.`.`.`.`.`.`.`.`.`.`.`.`.`.`.`.`.`.`.`.",
"`.`.`.`.`.`.`.`.`.`.`.`.`.`.`.`.`.`.`.`.`.`.`.`.`.`.`.`.> J +.#.@.#.#.} 1 `.`.`.`.`.`.`.`.`.`.`.`.`.`.`.`.`.`.`.`.`.`.`.`.`.`.`.",
"`.`.`.`.`.`.`.`.`.`.`.`.`.`.`.`.`.`.`.`.`.`.`.`.`.`.`.`.> J +.#.#.$.@.} 1 `.`.`.`.`.`.`.`.`.`.`.`.`.`.`.`.`.`.`.`.`.`.`.`.`.`.`.",
"`.`.`.`.`.`.`.`.`.`.`.`.`.`.`.`.`.`.`.`.`.`.`.`.`.`.`.`.> G +.$.#.@.@.} 1 `.`.`.`.`.`.`.`.`.`.`.`.`.`.`.`.`.`.`.`.`.`.`.`.`.`.`.",
"`.`.`.`.`.`.`.`.`.`.`.`.`.`.`.`.`.`.`.`.`.`.`.`.`.`.`.`.> J +.#.@.#.#.{ 1 `.`.`.`.`.`.`.`.`.`.`.`.`.`.`.`.`.`.`.`.`.`.`.`.`.`.`.",
"`.`.`.`.`.`.`.`.`.`.`.`.`.`.`.`.`.`.`.`.`.`.`.`.`.`.`.`.O 9 0 q q q q 0 + `.`.`.`.`.`.`.`.`.`.`.`.`.`.`.`.`.`.`.`.`.`.`.`.`.`.`.",
"`.`.`.`.`.`.`.`.`.`.`.`.`.`.`.`.`.`.`.`.`.`.`.`.`.`.`.`.`.`.`.`.`.`.`.`.`.`.`.`.`.`.`.`.`.`.`.`.`.`.`.`.`.`.`.`.`.`.`.`.`.`.`.`.",
"`.`.`.`.`.`.`.`.`.`.`.`.`.`.`.`.`.`.`.`.`.`.`.`.`.`.`.`.`.`.`.`.`.`.`.`.`.`.`.`.`.`.`.`.`.`.`.`.`.`.`.`.`.`.`.`.`.`.`.`.`.`.`.`."
};
