/* XPM */
static char *result[] = {
/* columns rows colors chars-per-pixel */
"64 64 243 2 ",
"   c #5A2F24",
".  c #632E28",
"X  c #69352D",
"o  c #703930",
"O  c #0E4D01",
"+  c #114E01",
"@  c #165408",
"#  c #184E15",
"$  c #1C5819",
"%  c #1F5E1D",
"&  c #275B15",
"*  c #215D1D",
"=  c #335017",
"-  c #1F610A",
";  c #1E6317",
":  c #1F661C",
">  c #24650B",
",  c #2E740E",
"<  c #296617",
"1  c #23631C",
"2  c #236A1C",
"3  c #2B6B1C",
"4  c #346D1B",
"5  c #2A751B",
"6  c #2B731C",
"7  c #367815",
"8  c #32751C",
"9  c #357C1B",
"0  c #3A7D1B",
"q  c #1F5D22",
"w  c #215D21",
"e  c #27592A",
"r  c #30582E",
"t  c #2A5B36",
"y  c #236322",
"u  c #256D21",
"i  c #2B6C21",
"p  c #296529",
"a  c #2A6A2B",
"s  c #326C27",
"d  c #277221",
"f  c #2C7223",
"g  c #317522",
"h  c #387825",
"j  c #3A7B2A",
"k  c #2B6634",
"l  c #336D36",
"z  c #387736",
"x  c #44491A",
"c  c #417F15",
"v  c #584A2A",
"b  c #6D4330",
"n  c #7C4237",
"m  c #447D2A",
"M  c #457B39",
"N  c #325E43",
"B  c #376746",
"V  c #387647",
"C  c #3B7755",
"Z  c #48774A",
"A  c #436D55",
"S  c #467459",
"D  c #7F615F",
"F  c #436863",
"G  c #497268",
"H  c #547968",
"J  c #557876",
"K  c #6D6974",
"L  c #864A3D",
"P  c #8C4D41",
"I  c #935245",
"U  c #9A574B",
"Y  c #855852",
"T  c #A25D50",
"R  c #92625B",
"E  c #8F6F6E",
"W  c #3C821D",
"Q  c #39861C",
"!  c #3E8327",
"~  c #448B1C",
"^  c #498919",
"/  c #44921B",
"(  c #4B951C",
")  c #4D9B1C",
"_  c #519D1D",
"`  c #54A31D",
"'  c #57A91C",
"]  c #5AAC1E",
"[  c #5EB01E",
"{  c #428322",
"}  c #448B22",
"|  c #4A8D26",
" . c #47822D",
".. c #4C9322",
"X. c #4C9525",
"o. c #539527",
"O. c #539C22",
"+. c #488637",
"@. c #568B3A",
"#. c #4E9135",
"$. c #579835",
"%. c #608E3D",
"&. c #55A221",
"*. c #5BA424",
"=. c #5DAC22",
"-. c #5FAE29",
";. c #5EA43A",
":. c #66AE31",
">. c #3F8060",
",. c #498748",
"<. c #548B4A",
"1. c #559549",
"2. c #498858",
"3. c #558959",
"4. c #4E915B",
"5. c #589656",
"6. c #639749",
"7. c #628B5D",
"8. c #67995A",
"9. c #448667",
"0. c #59906B",
"q. c #498C74",
"w. c #5C8375",
"e. c #53947A",
"r. c #679767",
"t. c #659271",
"y. c #6EAC65",
"u. c #74A770",
"i. c #87B175",
"p. c #787C88",
"a. c #559A8E",
"s. c #668A8B",
"d. c #669988",
"f. c #6D8C95",
"g. c #6D9596",
"h. c #769999",
"j. c #5DA191",
"k. c #66A58B",
"l. c #79A886",
"z. c #68A897",
"x. c #77B095",
"c. c #7A9AA7",
"v. c #7B9CB1",
"b. c #6DACAF",
"n. c #78B6A7",
"m. c #68ABB4",
"M. c #75B9B9",
"N. c #6DB7CE",
"B. c #76BCC6",
"V. c #74BDD7",
"C. c #7CC1C9",
"Z. c #7BC2D8",
"A. c #7DC6E7",
"S. c #7DCAF3",
"D. c #77C8FE",
"F. c #7DCCFE",
"G. c #7FD0FE",
"H. c #888F97",
"J. c #87AC86",
"K. c #8BAC98",
"L. c #8BB795",
"P. c #9ABD99",
"I. c #A1BE9F",
"U. c #899CA6",
"Y. c #8AAEA9",
"T. c #88A4B8",
"R. c #92ACB9",
"E. c #95B2BB",
"W. c #A6BEA8",
"Q. c #A1B5B7",
"!. c #9AC1A0",
"~. c #AFC9B3",
"^. c #8FB0C6",
"/. c #9AB7CA",
"(. c #8AB9D7",
"). c #A3BDC8",
"_. c #A5BFD0",
"`. c #86BDE1",
"'. c #88C7D1",
"]. c #95C7DB",
"[. c #B7CAC8",
"{. c #AAC2D2",
"}. c #B3CDD1",
"|. c #B8CBD6",
" X c #86CBEB",
".X c #95CFEA",
"XX c #83CDF3",
"oX c #82CFFE",
"OX c #88CFFE",
"+X c #87D3F4",
"@X c #84D2FE",
"#X c #8BD5FE",
"$X c #8ED9FE",
"%X c #94D4F5",
"&X c #91D6FD",
"*X c #94D9FD",
"=X c #9BDBFD",
"-X c #ADD1E6",
";X c #A6DBF6",
":X c #A3DEFC",
">X c #A9DEFA",
",X c #B5DEF4",
"<X c #9FE0FC",
"1X c #A4E1FD",
"2X c #ABE1FB",
"3X c #BDE5F7",
"4X c #B3E3FA",
"5X c #B9E7F8",
"6X c #BCE5F9",
"7X c #C4DBC6",
"8X c #C5D7D6",
"9X c #CBD8D4",
"0X c #C8DBE5",
"qX c #D9DFE4",
"wX c #D8E9E9",
"eX c #C3E7F5",
"rX c #CFE9F1",
"tX c #CDECF7",
"yX c #C2E7F9",
"uX c #C4EAFA",
"iX c #CCEDF9",
"pX c #D3ECF5",
"aX c #DBEDF4",
"sX c #D9EDF6",
"dX c #D3EEF9",
"fX c #DBF2F6",
"gX c #E3ECEC",
"hX c #E2F0EB",
"jX c #E7EEF3",
"kX c #E5F4F5",
"lX c #ECF5F6",
"zX c #E4F8F7",
"xX c #EBF8F7",
"cX c #E5F5F9",
"vX c #EBF7F9",
"bX c #E5F9F9",
"nX c #EDF9F9",
"mX c #F2F6F6",
"MX c #F2F9F7",
"NX c #F9FAF7",
"BX c #F2F7F8",
"VX c #F3FAFA",
"CX c #F9FBFB",
/* pixels */
"aXaXNXCXCXkXMXnXxXzXbXxXxXxXlXkXbXmXmXxXxXnXxXnXBXVXVXbXbXxXxXxXkXkXnXNXCXBXBXxXlXkXlXmXmXxXVXnXnXbXbXnXnXbXxXVXnXnXVXVXbXfXbXnX",
"aXkXVXCXCXkXnXVXkXzXxXnXkXxXkXlXxXmXmXbXnXnXxXxXnXCXVXbXbXxXxXnXzXzXxXCXNXBXmXxXlXkXlXmXVXnXnXnXbXnXVXCXCXBXbXVXCXVXxXxXnXNXnXxX",
"fXkXVXVXCXxXxXmXlXxXxXnXkXlXlXkXxXmXxXxXnXnXxXnXnXVXnXbXbXnXxXnXzXzXnXCXNXnXmXlXlXlXlXlXnXnXVXVXbXnXCXVXCXVXxXnXVXVXbXcXnXCXBXnX",
"kXnXnXnXNXMXMXmXlXlXlXxXjXlXlXlXkXbXkXBXCXnXxXnXVXVXnXbXnXNXzXnXmXMXnXxXnXxXkXkXlXmXkXhXxXnXnXVXnXnXCXnXnXCXxXxXVXCXnXcXnXCXnXxX",
"xXxXlXnXBXlXmXkXlXmXmXlXlXlXmXxXxXzXxXmXNXnXxXCXCXnXnXnXVXCXxXnXBXBXxXnXnXnXVXBXnXlXlXjXBXVXnXnXbXnXCXCXxXbXbXxXCXVXnXkXnXNXnXbX",
"xXlXkXkXlXlXlXkXlXjXlXlXlXlXxXBXnXxXxXxXmXnXbXMXVXVXnXnXCXVXbXxXVXBXxXVXBXnXnXVXBXlXkXlXVXVXvXnXnXnXCXBXxXbXkXlXnXnXxXbXnXnXnXnX",
"mXlXkXkXkXlXkXkXkXkXlXmXxXkXlXxXVXVXNXmXnXnXbXnXnXvXcXxXVXnXbXnXnXVXVXVXCXnXbXbXnXlXkXxXVXVXVXVXVXBXMXBXnXlXkXlXlXlXxXlXBXxXBXVX",
"mXmXlXxXkXlXxXlXkXlXkXmXlXkXkXzXMXCXMXnXnXCXxXhX!.J.J.K.~.7XwXbXVXVXvXnXVXVXnXxXxXcXnXVXvXnXBXnXnXnXBXBXnXlXkXaXkXmXlXxXbXbXxXnX",
"mXmXmXmXkXlXmXmXlXlXkXmXkXkXlXkXVXnXVXnXVXCXMXhXP.r.3.z l z 8.P.wXCXNXxXnXMXCXVXxXxXnXCXlXxXxXxXkXnXlXkXlXlXlXkXlXmXnXnXnXnXlXxX",
"BXlXmXjXkXmXkXlXjXlXBXjXaXkXlXxXnXzXbXnXVXnXnXxXlXhXwX9XJ.z < 8 6.~.BXxXzXnXCXVXxXnXnXnXlXkXfXkXkXcXjXfXkXmXmXBXxXBXBXVXVXvXkXnX",
"kXeXaXkX,XpX4XaX;X3XpX=X=XpX6XiXnX4X1X2XdX5XtX5XmXnX5XdXmXt.y 3 7 | P.lXxXnXNXuX=XdX4X=XkXmXfX4X4XyXyX3XeXpXmXkX4XfXnXcX4X>X6XVX",
"pX>XsXlX6X6X3XpXOX>XdX=X:XfXiX6XbXiX5X3XdX2XtX5XuXuX6XfXtXu.u 2 4 c o.L.rXuXfXdX*XiX:X#XeXnXtX2X>X3X;X:X6XyXkXkX>XuXdXcX4X#X2XcX",
";X&XdXBXjX:XpXtX+X>XkX5XyXNXxX>XfXmXbXxXdX2XzX5X@X$XuXVX].5.u u h ^ ^ %.P.OX3XMX4XtX1X#X=XpX5X4X4XeX#X@X3X4X3XhX4X4X2XfXuX#X1XtX",
">X,X>X%XdX%X#X>XyX5XeX&X#XpXiXpX2XfX4XdX1X2XnXiX@X4X5XrX!.z l 4.u.u.:._ 5.M.eXeX3X4X1X*X&X2XtX2XeX2X2X@X#X#X=XtX6XfX1X*X1X5X$X5X",
"&X;XOXOX,X#XoX&X4X:X4X=X#X2X2X2X*X4X<X5X$X<X5X5X$X5X2X'.4.k G g.{.8X~.y.$.r.].=X2X2X=X&X#X=X4X:X2X=X=XXX@X#X#X4X1X3X*X+X$X4X&X<X",
"D.D.oXOX#X@X@X#X#X@X=X1X&X#X@XoX@X$X*X1X$X@X@X*X<X<X Xu.! u k V w.E.0X7Xi.%.x.A.&X=X=X#XoX&X#X#X+XG.G.@X@X#X#X#X#X#X#X$X$X*X=X$X",
"D.OXOX#XOX@X@X#X@X@X@X&X#X@X@XG.@X*X&X&X$X$X$X<X<X+Xn.,.h d : 2 i s.{.aX7Xi.y.M.%X&X#X@XF.oXoXOX@XoXoX#X@X#X#X#X&X#X#X#X&X&X&X$X",
"%XOX#XOXOXoX#X#X@X@X@X#X$X@X@X#X&X&X#X#X$X$X#X*X$XC.5.! f u : d 5 w./.rXBXwX~.E..X#X#X@XF.OXOXOXOXF.@X#X#X@X#X*X#X#X#X#X&X#X#X$X",
"=X*XOXF.F.@X#X@X@X@X#X#X@XG.$X1X*X#X#X@X#X$X#XoXZ.u.+.j d d d Q , J ^.0XkXnXkXwX3X&X@X@X@X#X&X#XF.F.@X@X@X#X$X<X$X@X@X#X#X@X@X#X",
"OXoXF.F.F.$X2X$X#X#X#X#XG.@X=X*X#X#X@XF.oX@X@XA.k.<.! g d d u d 2 S v.{.|.rXaXcXkX,X#X@X#X=X=X@XF.F.oX@X#X$X*X&X#X@XoX@X@X@XG.@X",
"F.F.F.oX@X=X=X#X#X*X=X&X#X&X=X#X@X@X@XG.@X#XXXx.<.! z d u u d 5 , i J g.c.^.{.0XkXwX].@X*X<X=X@XF.D.F.@X@X&X*X$X#X@XG.@X@XoXG.@X",
"F.F.oX@X&X>X#X#X#X1X:X*X$X=X&X+X@X@X@X@X@X&XY.1.! ! d d : u 5 Q Q 7 7 } o.0.v.{.aXwXl.'.1X1X$X@XF.F.F.oX#X=X&X@XG.G.G.@X#XG.@X#X",
"F.oX#XOXF.+X#X$X<X*X$X#X@X#X#X#X$X@X@X$X*XY.@. .! d d d 2 d 5 Q Q / ` ' ] $.g./.0X9X8.8.'.%X@XG.oX@X@X@X#X#X#X@X@XG.@X*X@X@X#X&X",
"#X&X#XF.F.oX@X#X&X#X@X@X@X#X$X#X#X@X+X+XL.@. .j d d : : 2 d 5 Q Q ( ` ' &.o.0.T.{.K.+.m 5.M.S.G.@X&X&X@X@X@X@X#X@XG.$X*X@X$X=X:X",
"=X*XOXD.D.F.@X#X#X@X@X@X#X$X&X#XG.S.'.x.<.m m i i 2 : 2 2 5 9 Q ) ) ` ' ' ^ m H t.M j j ! 4.z.Z.+X=X=X@X@XoX@X#X@X@X*X$XG.&X2X1X",
"*XOXD.D.F.@X#X#X#X@X@X#X$X$X#XOXS.C.u.@.m h g 3 2 : : : 5 5 W Q Q ) _ ` ` ( 0 4 8 g f d h j +.r.C.&X=X*X#XoXF.oX#X@X#X#X$X<X2X$X",
"oXF.F.D.oX#X#X#X#X#X#X#X&X$X$XZ.n.r.@. .j i 2 1 : : : 2 5 5 W Q ( ( ) _ _ ( ^ 7 5 5 d u d z 4.k.C.$X&X$X@XoXF.@X@X#X$X*X#X$X=X#X",
"D.F.oXOX#X#X#X#X@X&X*X&X$X+XC.l.6.+.m h i i 1 1 1 : 2 2 5 5 0 Q / / ( ( ( / Q 8 % < 3 $ 1 e.Z.XX+X#X@X@X@XOXoXOX@X$X&X*X$X#X#X#X",
"F.oX=X*X&X#X@X@X#X=X2X*X+Xn.8.%. .m h s p 1 $ k k : 1 < 3 8 0 0 ~ ~ ^ m ~ ~ 7 ,.H r # # $ 9.Z.F.oXoX@XF.oXoXF.D.#X@X@X@X#X#X#X$X",
"oX#X*X#X#X@X@X$X*X=X=X#XXXk.M m m m s < 1 1 Z G p ; 1 l s 5 8 7 7 0 7 c h +.8.W.[.K = & * p 9.N.F.OX@XoXoXoXF.oX#X#X#X@X@X#X&X*X",
"OX#X&X#X#XOX#X=X=X=X#XF.F.V.z.7.M h 4 4 M t.H.B $ $ 1 0.r.m 4 h m <.8.i.W.7X9X|.R.G & 7 0 8 ! z.-X=X#X@XoXF.oX&X#X#X#X#X#X$X=X1X",
"oX+X#X@XoX@X&X*X&X@XG.G.OX#X,XwX9X[.W.W.7XqXW.7.3.3.7.~.[.K.K.~.9XqXqXQ.s.w.J H Z 4 ^ ) ` ) Q <.K.0XuX&XF.F.&X=X#XG.@X@X#X=X1X1X",
"oX@X@X@X@X#X$X$X@XG.@X+X#X;X-X{./._.jXNXBXBXBXBXgXqXgX|.s.F J U.{.).U.B & 4 7 0 ~ ( ` ] [ [ [ &.! 0.}.fX4X#X#X#XoXoX@X#X&X2X2X<X",
"F.oX@X@X#X$X#XG.F.G.@X$X%X].s.A K ).jXjX0X|.qXBXCXNXwXh.N $ $ t F G N & 3 h } ( X.` ' ] [ :.~.8XL.,.4./.0XrX.XoXoX#X#X#X=X2X<X$X",
"@X@X@XF.F.@X@XG.#X#X#X$X Xk.k t s.|.8X/.c.T./.0XjXjX{.w.e y y % & # $ 3 9 0 ~ } X.` ` ] [ :.P.~.x.+.! ,.g.E.].OX&X&X@XF.@X@XG.G.",
"F.F.F.F.oX@X@X#X$X@X$XZ.d.s t J v.U.J B N F v.(.8X_.v.C p y 1 q q * 1 i g ! ~ } ..( O.&.' =.;.1.$.X.#.4.S m.%X#X#X@X@X#X$X*X$XF.",
"F.G.F.@X+X@X$X$X$X#XZ.0.f w N J J B q w q e p.g.c.p.F e y q : * 1 1 3 3 9 0 } } ( ~ ..&.` &.` ' O.$.8.M.N.S.*X&X@X@X#X#X@X<X*X#X",
"G.F.@X#X$X$X*X*X+XB.4.g q q e N t q w p p y q N N t q q y 1 % q * y 3 g h W W } } z h ( ..o.$.8.u.P.[.,X=X$X@XF.@X$X&X#X$X*X=X*X",
"@X@X#X#X$X$X$XG.M.4.,.V q q k C k p p a u p q q q q q q w % % % 1 y 6 g 0 h W 9 j G Z <.8.i.W.[.wXkXlXcXdX4X#XOX&X&X#X#X#X%X=X=X",
"@X@X#X*X*X$X@Xm.,.0.0.l : V G V a u a p a a y y y q : q % w * ; 1 < < 3 3 i k l w.R.~.~.|.wXjXvXmXwX|.|.0XtX6X&X*X&X&X#X#X&X=X=X",
"@X#X*X2X=X$XG.N.z.C.2.! ,.>.p : : q 1 1 y 3 1 1 < 1 < & & 1 $ > a B C S G J s.U.|.|.I.J._.rXvXcX0XE.r.5.h._.0X;X#X#X:X*X=X<X$XG.",
"#X=X=X<X&X#XG.G.G.@XZ.e.#.! W W 0 0 0 0 7 4 4 4 < 3 < < 1 1 ; 2 A f.R.).|.8X0X8XR.r.@.$.g._.0X|.Y.<.} Q +.g./.-X#X@X&X&X&X&X#X@X",
"=X>X=X*X#XG.G.@X@XC.y.X.O.O.&.=.*.*.*.O.o.| | | { 0 f 3 ; 2 : 2 i A J U.E.E.U.w.Z | O.O.0.f.c.s.,.^ ) / Q ,.b. X@XF.#X#X&X#X#X#X",
"4X>X#X#X@X@X@XA.k.#.Q ) ' =.-.-.=.=.*.o.o.o.| | ! h f 2 : : : 2 2 3 3 w e r p 4 ~ ..O.O.)  .m 7 , , , , Q ! b.@X@XF.#X$X*X#X@X$X",
"<X$X$XG.G.G.M.1./ ) ) ' =.=.=.[ =.=.*.O.o...| { ! 5 d 2 : : : 1 2 3 f g 8 < < { } | ..} ^ 7 > + + + + + @ - b.@X$X@X$X@X#X#X#X*X",
"$X$X@XG.S.z.! ! / ) ' ' ] [ [ [ ] *.O.O.o.| } h h g 3 2 : : : 2 2 d i g 8 4 @ , { 0 8 > @ + O O + + + + O q C.G.$X*X$X$X#X#X$X<X",
"$X@XG.G.m.a ; , Q Q ) ' ] [ ] ] ] *.&.O.X.| { 4 8 g 6 2 : : : 2 2 i i f f 6 1 & 3 & @ @ @ @ @ @ # # $ y V a.S.@X*X1X<X$X@XG.*X*X",
"$X@XG.G.j.y @ @ @ > 7 / ` ' ] ] &._ O.X...| m a g g d 2 : : 1 2 2 2 2 6 6 z q.a.e.e.q.9.9.9.9.q.q.a.a.m.Z.+X@X*X=X*X$X@X$X@X+X$X",
"$X#X#X@XZ.z.q.9.C C V 2.,.X.O.) O.X.( ..|  .e.d.h f 6 2 1 2 1 2 3 < 1 p V j.Z.#X;X%X+XXXXX XXXS.D.F.F.F.F.@X#X*X*X#X#X@X@X@XG.+X",
"#X&X#X#X#X#XS.A.A.Z.V.Z.N.z.t.,.! ! Q 9 ~ 2.N.k.f 3 2 < 2 3 3 < & = = v c.+X#X=X1X#X&X&X#XF.oX@X$X$X@XF.F.G.@X#X#X#XG.G.@XG.@X@X",
"#X&X#X@X#X#X@X#XF.+X#X@XG.G.A.C.m.j.e.9.2.m.XXe.a l p & = = x   b b o P H..X=X>X*X&X#X@XG.F.OX#X#X#XF.F.F.@X#X#X#X@X#X#X@XF.@X$X",
"#X$X#X@X&X#X@X@XG.@X@X@XG.G.$XG.F.S.A.V.V.D.OXV.M.m.H     X o n P I U I E (.*X%X#X&X#XoX@XG.#X#X#X#XF.F.@X#X#X#X@X#X#X$X@XG.#X$X",
"#X#X@X#X=X#XG.G.@X#X#X#X$X#X=X&XOXoXoXoXD.F.OXOXF.A.p.  . . n P U T U I Y U.XXoX@X@X@XF.@X@X&X#X#X#XoXoX&X#X#X#X#X#X&X*XoX#X#X#X",
"#X@X@X*X#X#X#X#X#X&X#X@X@X<X*X#XoXOXoXoXoXF.OX&X#X(.K   . X n P I T T U P R ^.OX@XG.@X@X#X*X2X=X#X#X#X#X#X#X@X@X#X>X:X#XF.#X#X#X",
"#XG.#X=X#X#X#X#X#X$X@XF.#X=X#X@XOXOXOXoXoXoXOX&X=X^.b   . X n L I U T T I n E `.@XG.@X#X&X1X1X&X#X#X#X#X#X@X#X#X*X2X=X@X@X#X#X#X",
"@XG.*X&X#X#X@X#X@X@XF.@X#X#X#X#X#X%XOXoXD.oX&X*X.Xp.. . . o n P I T U U I P P p. XG.#X#X=X1X$X$X#X#XOX@X@X@X&X=X:X*X@X@X*X$X#X#X",
"@X#X#X#X#X$X$X#X#X@X#X*X*X#X#X#X&X&XOXF.F.F.@X#X(.D X X o o o P I I U T U U L Y T.@X#X#X#X&X$X#X#X@X@X@X@X$X*X*X#X@XF.@X$X$X#X@X",
"#X#XF.@X$X&X#X#X@X@X#X&X*X#X#XOX#X*X&XOXF.OX#X@X XU.E R D Y Y Y R R R E R E E H.(.&X$X&X&X#X#X#X#X#X#X@X#X&X&X#X@XG.@X#X#X#X#XG.",
"G.F.F.#X&X=X@X@X@X@X#X@XoX@XOX@X$X1X2X&X@X#X*X$X*X%X X(./.^.R.T.T.T.T.^.(.`.OX#X=X:X*X*X*X@X@X@X#X=X#X@X#X&X@XoXF.G.$X$X$X#X@X@X",
"@XG.@X#X#X@X@X#X@XF.oX@X#X@X#X@X*X2X=X#XoX@X#X#XOXOX#X=X%X#X@XF.OXOX*X:X#X@X&X=X2X1X2X1X$X#XG.G.#X&X#XF.@X#XoXoX#X#X1X&X#X@X@X@X",
"@X@X#X#X#X@XG.@X@XF.G.#X#X#X&X$X&X=X&X@XF.@X@X@X@X#X#X$X#X@XG.@X#X&X=X=X#X@X=X2X1X=X1X=X#XG.G.G.#X#X@X@X@X@X@X#X#X=X:X&X@X@X#X#X",
"#X#X#X@X#X#XF.@XoXF.@X@X@X&X*X&X#X#X#X@X@XF.@X@X@X&X&X#XoXG.@X#X$X*X=X#X@X#X>X4X:X$X&X$X@X@XG.@X#X#X@X@X@X@X#X#X&X2X&X@X@X#X$X#X",
"=X*X@XoXOX@XF.oXoXF.F.F.#X#X@X$X#X#X$X&XG.F.@X@X@X@X#X#X#X@X#X$X$X#X#X#X@X#X$X&X#X@X#X#X#X#X@X@X#X=X=X*X#X@X#X&X2X*XOX@X@X#X#X=X",
"*X&XoXF.oX@XoX@XoXF.F.@X#X@X@X#X#X&X*X*XG.@X@X#X@X#X#X$X#X@X#X#X#X#X@X#X#X$X#X#X@X#X#X#X#X@X@X#X=X=X=X&X#X@X#X#X=X#XoX@X@X#X*X1X"
};
