/* XPM */
static char *result[] = {
/* columns rows colors chars-per-pixel */
"64 64 245 2 ",
"   c #68342E",
".  c #154E0D",
"X  c #18550A",
"o  c #1B5718",
"O  c #1E5D1E",
"+  c #275D19",
"@  c #215D1D",
"#  c #335013",
"$  c #1F6108",
"%  c #1E631C",
"&  c #2C6A12",
"*  c #22631D",
"=  c #296618",
"-  c #236C1D",
";  c #2B6C1D",
":  c #25721E",
">  c #2C741C",
",  c #2D781A",
"<  c #33751C",
"1  c #387618",
"2  c #347C1D",
"3  c #3B7D1C",
"4  c #1E5C20",
"5  c #225C23",
"6  c #245827",
"7  c #2A5C31",
"8  c #315E3E",
"9  c #1F6122",
"0  c #236323",
"q  c #256B22",
"w  c #2D6C23",
"e  c #28652B",
"r  c #276828",
"t  c #296A29",
"y  c #346D29",
"u  c #297223",
"i  c #2C7323",
"p  c #337322",
"a  c #387727",
"s  c #2C6637",
"d  c #366A37",
"f  c #2F723E",
"g  c #357537",
"h  c #44471B",
"j  c #545227",
"k  c #704933",
"l  c #437B2C",
"z  c #44763B",
"x  c #335D45",
"c  c #376646",
"v  c #3A7745",
"b  c #3E6859",
"n  c #3B7B53",
"m  c #714A48",
"M  c #416E49",
"N  c #46784B",
"B  c #436C58",
"V  c #467658",
"C  c #547D59",
"Z  c #456C66",
"A  c #4B7465",
"S  c #52786D",
"D  c #4A6D76",
"F  c #577B7A",
"G  c #6E6C67",
"H  c #83463B",
"J  c #8E4E42",
"K  c #8F584E",
"L  c #985649",
"P  c #A05B4E",
"I  c #8C7476",
"U  c #37861C",
"Y  c #3C831E",
"T  c #3C8222",
"R  c #3E8920",
"E  c #43891A",
"W  c #43921B",
"Q  c #49951B",
"!  c #4C9B1C",
"~  c #52961C",
"^  c #529D1C",
"/  c #4FA51C",
"(  c #54A41D",
")  c #59A71E",
"_  c #5AAC1E",
"`  c #5DB01D",
"'  c #60AE1F",
"]  c #428422",
"[  c #448B22",
"{  c #498D24",
"}  c #47862B",
"|  c #469220",
" . c #4C9422",
".. c #4E9A21",
"X. c #529C22",
"o. c #569729",
"O. c #498539",
"+. c #578C35",
"@. c #539234",
"#. c #619533",
"$. c #56A321",
"%. c #5BA723",
"&. c #5EAB2B",
"*. c #61A926",
"=. c #3E8646",
"-. c #4A8545",
";. c #54864D",
":. c #599348",
">. c #468558",
",. c #578E58",
"<. c #649251",
"1. c #689859",
"2. c #64A54A",
"3. c #488A66",
"4. c #5A876A",
"5. c #5C9968",
"6. c #478B76",
"7. c #5B8475",
"8. c #52947A",
"9. c #679565",
"0. c #638D7B",
"q. c #6F9676",
"w. c #70A576",
"e. c #81AF73",
"r. c #8DC275",
"t. c #587886",
"y. c #5D7992",
"u. c #637E97",
"i. c #887B82",
"p. c #599491",
"a. c #668788",
"s. c #6A9387",
"d. c #789B86",
"f. c #698897",
"g. c #6E8D9A",
"h. c #76969A",
"j. c #5EA693",
"k. c #74A78F",
"l. c #65A696",
"z. c #758FA5",
"x. c #7B97A6",
"c. c #5BA1A4",
"v. c #67ABA9",
"b. c #72AEAE",
"n. c #77B8B6",
"m. c #6AB3C4",
"M. c #77BAC6",
"N. c #77BDD7",
"B. c #7BC3DA",
"V. c #7DC6E5",
"C. c #7BC9F6",
"Z. c #7DCCFE",
"A. c #7FD0FE",
"S. c #85A795",
"D. c #88B798",
"F. c #95B69C",
"G. c #8697AA",
"H. c #879DB0",
"J. c #86A4A9",
"K. c #93A8AA",
"L. c #96B8A9",
"P. c #89A6B7",
"I. c #97A9B9",
"U. c #99B6B8",
"Y. c #A3B5B4",
"T. c #A2B3BC",
"R. c #8BC4BF",
"E. c #AACFB3",
"W. c #8BB5CF",
"Q. c #9CB4C3",
"!. c #9CB8C9",
"~. c #A8B9C6",
"^. c #A3BCCC",
"/. c #A2BFD0",
"(. c #88BEE2",
"). c #93C9C8",
"_. c #87C9D8",
"`. c #AAC3CB",
"'. c #B3CFCB",
"]. c #ADC8D7",
"[. c #B5C9D5",
"{. c #BFD0D5",
"}. c #BCD3DD",
"|. c #87CAE8",
" X c #9ACCE5",
".X c #8DD0EC",
"XX c #85CDF4",
"oX c #8BCEF5",
"OX c #82CFFE",
"+X c #88D2F5",
"@X c #84D2FE",
"#X c #8BD5FE",
"$X c #8ED9FE",
"%X c #91D6FD",
"&X c #9BD6F8",
"*X c #94D9FD",
"=X c #9BDBFD",
"-X c #ACD9EE",
";X c #BBD7E4",
":X c #AADCF5",
">X c #A3DEFC",
",X c #A9DEFA",
"<X c #9FE0FC",
"1X c #BDE1E9",
"2X c #A4E0FD",
"3X c #ABE1FB",
"4X c #B3E4FA",
"5X c #BBE7F8",
"6X c #BCE5F9",
"7X c #C3CCD6",
"8X c #CAD9D5",
"9X c #C7D5DA",
"0X c #D1E4DB",
"qX c #C8DAE4",
"wX c #D6DDE4",
"eX c #CBE2E8",
"rX c #D4E4EC",
"tX c #DAE6E8",
"yX c #C3E7F6",
"uX c #CDECF7",
"iX c #C2E7F9",
"pX c #C4E9FA",
"aX c #CCECFA",
"sX c #D5ECF5",
"dX c #DBECF3",
"fX c #D3EEFA",
"gX c #DBEFF8",
"hX c #D6F0F1",
"jX c #DAF2F6",
"kX c #E6EAED",
"lX c #E4EEF2",
"zX c #EAEEF1",
"xX c #E5F4F5",
"cX c #ECF5F5",
"vX c #E4F8F7",
"bX c #EAF9F7",
"nX c #E6F6F9",
"mX c #EBF7F9",
"MX c #E5F9F9",
"NX c #EDF9F9",
"BX c #F2F6F6",
"VX c #F3F9F7",
"CX c #F2F6F8",
"ZX c #F3FAFA",
"AX c #F9FCFC",
/* pixels */
"dXdXAXAXVXbXVXNXvXvXbXNXxXcXcXbXbXBXVXvXbXZXmXNXNXAXNXnXMXMXbXbXxXvXNXAXAXBXBXbXcXcXcXBXBXcXNXZXNXMXMXNXmXnXNXZXNXNXZXZXMXvXvXvX",
"dXxXAXAXAXbXNXZXbXxXvXNXvXbXcXxXbXBXVXvXNXNXbXcXNXAXZXMXMXNXNXNXxXxXbXAXAXVXBXcXcXxXcXBXZXbXNXZXMXbXNXAXAXmXMXZXAXZXbXmXNXZXVXmX",
"dXxXNXAXAXbXbXVXbXbXmXNXxXcXcXxXbXcXcXbXNXNXmXNXNXZXNXMXbXbXbXNXvXvXNXAXAXNXcXcXcXcXxXcXNXNXNXZXMXMXAXZXAXAXNXNXAXZXMXnXZXVXZXNX",
"vXNXbXNXVXVXBXcXcXcXcXcXzXxXcXbXbXvXxXZXZXZXbXNXZXZXNXMXbXAXMXNXVXVXNXbXNXNXxXxXcXBXxXxXbXZXNXZXNXNXAXZXNXAXMXbXNXAXNXxXNXAXZXxX",
"bXbXbXcXZXcXcXcXcXBXBXcXcXcXBXbXbXxXvXbXAXNXbXAXAXNXNXNXZXAXbXNXZXCXmXmXNXNXAXcXVXbXxXzXZXNXNXNXbXNXAXZXbXNXbXbXAXZXNXxXNXZXNXNX",
"cXbXxXxXbXcXcXxXxXxXBXcXcXcXcXZXZXvXZXcXVXNXMXZXAXZXNXZXZXZXMXNXZXmXmXCXZXNXNXVXcXbXxXcXAXZXmXNXNXNXAXAXxXvXxXbXNXNXNXxXbXNXNXNX",
"BXBXxXxXxXcXxXxXxXzXcXBXbXcXbXNXAXVXVXVXbXZXbXbXNXNXnXNXAXNXMXNXNXZXNXAXZXNXvXnXZXbXxXxXCXAXNXAXZXZXVXCXNXcXxXcXcXxXbXbXZXNXNXVX",
"BXcXcXbXxXcXBXcXbXxXxXBXcXxXjXxXZXVXAXNXNXZXNXNXNXNXNXNXNXZXbXMXbXAXNXNXAXZXNXNXMXxXNXZXmXmXZXbXNXNXCXmXcXbXxXdXxXBXbXbXvXxXbXNX",
"BXBXBXcXxXcXBXBXxXcXmXcXzXxXxXxXZXNXZXNXZXAXZXZXNXNXNXZXZXVXVXtX8X0XVXBXNXZXAXNXNXNXNXAXbXxXmXbXbXmXxXbXcXBXbXxXcXBXmXNXNXNXmXmX",
"CXcXBXzXxXBXxXbXlXBXCXmXjXxXbXNXNXMXMXNXZXNXNXbXZXNXMXZXZXNXkXF.-.w.zXcXvXNXAXZXmXNXnXNXcXcXjXxXxXxXlXdXxXBXBXBXmXCXZXZXZXNXxXNX",
"xXuXdXcX:XsX4XdX,X6XuX&X&XuX6XfXNX4X2X3XfX5XaX5XAXNX5XfXAX1Xk.a = 5.zXNXNXNXAXiX=XfX4X=XxXBXjX4X4X6XyX6XyXsXVXxX4XlXNXnX4X>X5XNX",
"uX>XsXBX6XiX6XsX#X:XsX=X,XgXuX5XMXaX5X5XaX3XhX4XpXpX5XjXjXD.l = t R.MXfXjXiXgXfX*XaX,X#XiXNXfX3X,X6X:X>X6X6XxXxX,XyXfXnX4X$X3XnX",
":XoXsXCXxX,XsXuX+X2XxX5X6XCXmX4XjXZXMXbXfX4XjX5XA.$XpXZXE.:.1 = g 0XfX>X5X#XiXZX4XuX2X#X*XfX5X4X4XiX+X+X6X4X6XdX4X4X3XjXaX$X>XuX",
">X6X,X&XsX#X#X:XiX5XyX%X%XfXaXuX3XjX4XfX2X3XNXaX@X4X5XeXe.3 ; * v eX*X@X$X#XpXyXiX4X2X*X%X4XuX3XyX4X3X@X#X$X&XsX6XfX2X=X=X5X$X4X",
"oX:X#XOX4XoXZ.*X4X>X4X&X#X3X3X3X*X4X<X5X*X<X5X4X$X5X:Xk.o.3 , - g ).%X$X$X$X,X&X,X3X=X%X#X&X4X=X3X*X=X@XA.#X$X3X3X6X*X+X%X4X*X=X",
"Z.Z.OXOX#X#X@X#X#X@X=X2X%X#X@XOX@X$X*X<X$X@X$X$X<X<Xn.:.E E , % g n.<X=X=X#XZ.Z.%X=X=X#XOX%X#X$X+XA.A.@X@X#X#X#X#X$X$X+X$X*X2X$X",
"Z.Z.@X#X#X@X@X#X@X@X@X%X#X@XA.Z.#X*X%X%X$X#X$X>X<XB.5.{ ~ E , - v [.aX,X%X#X#X@X%X%X%X@XOXOX@X@X#XOXOX$X#X#X$X$X$X#X#X#X%X%X%X$X",
"oX@XoXOX@XOX@X#X@X@X@X$X#X@X@X$X%X%X$X#X$X$X$X*X.Xk.o.~ ~ E , % d K.sXaX=X#XOXOX%X#X#XOXOXOX#XOXOXZ.OX#X@X#X#X%X#X#X@X#X%X$X#X$X",
">X%X@XOXZ.OX%X#X@X@X@X$X@XA.$X2X*X$X@X@X@X$X#XC.n.:.o.^ ^ W 2 - q 8.[.lXfX>XZ.OX$X#X#X@XOX#X%X#XZ.Z.OX#X@X#X$X=X#XOX@X#X#X@X@X#X",
"oXOXOXZ.OX#X,X%X#X#X#X#XA.@X=X*X$X@XOXOX@X@XoXN.9.#.^ ( ^ U U : q >.P.}.dXaX=X#X%X#X@XOX#X&X>XOXZ.Z.OX@X@X$X=X%X#X@XOX#X@X@XZ.@X",
"OXZ.Z.OX@X=X>X#X#X*X=X%X#X%X=X#X@X@X@XZ.@X@X|.k.#.o.%.) / W U : u t 3.G.`.rXiX=X%X%X$X@X*X=X=X@XZ.Z.Z.@X#X%X*X$X#X@XA.@X@XZ.OX@X",
"Z.Z.OX@X%X,X#X@X#X2X>X*X#X=X%X@X@X#XOXoX#X.Xk.:.#.%.' ` / R U : : - u g s.U.qXuX4X,X%X#X2X>X$XOXZ.Z.Z.OX#X=X%X@X@XA.A.@X#X@X@X#X",
"Z.OX#XOXOXOX#X$X=X=X$X#X@X#X#X#X#X#X@X$X*XU.1.#.$.' ` _ / / U U : : u u g 5.Q.qXsXaX:X>X>X*X@XA.Z.@X@XOX@X#X#X#XA.A.@X*X@X#X#X%X",
"#X%X#XZ.Z.OXOX$X%X$X@X@X@X#X$X$X@XA.#X*X).1.#.*.%.` ` _ / W U U , : q q u >.x.!.qXlXlXyX:X%XA.@X@X%X$XOX@X@X@X#X@XA.$X*X@X$X=X=X",
"&X=XOXZ.Z.Z.OX#X$X#XOX@X$X$X$X#X@XA.$XR.9.#.#.o.*.' ' ) / W R U u : - - : v p.W./.qXnXnXgXiX&X#X$X=X=X@X@XOXOX#X@X@X*X$XA.%X2X2X",
"=XOXC.C.Z.OX@X#X#XOX@X#X*X$X#X@XZ.@X).1.+.+.#.o.' ' ` ) / ! R U U , : - % q n a.b.!.;XrXdXrX;XU._..X=X=X#XOXOXOX@X#X#X$X#X2X3X*X",
"OXZ.C.Z.OX$X#X#X#X#X#X%X*X$X@XA.@Xn.,.O.O.} @.X.) _ _ _ / / W U U U : : - % 9 s A s.P.Q.~.~.S.<.<.w.D.|.OXOXZ.OX@X#X$X$X$X$X=X$X",
"Z.Z.Z.Z.@X%X#X#X@X$X%X%X$X@X@XA.n.,.O.} } ] { X.^ ( _ ) $.&.2.:.T i : % u g u % % r s B B B z +.+.#.+.l.XXOXOXOX#X#X%X*X$X#X#X@X",
"Z.Z.=X%X%X#XOX@X@X=X3X*X$X@XXXk.:.} T g T T R | X.^ &.r.'.0XdXtX8XE.D.F.'.0XD.f 9 % % * = ; p l l l g m.OXOXZ.Z.#X@X@X#X@X#X#X%X",
"OX@X*X%X$XOX@X$X*X>X=X@X@XB.w.+.} a i u u i T Y  .X.e.}.eX{.^.}.0XdXhXtXrX}.P.V x 7 * - * ; w p 1 N b.OXOXOXZ.OX#X#X@X@X@X#X$X=X",
"@X%X%X#X#XOX$X=X=X=X#X@XOXM.5.O.a i : q u U u < E [ 9.J.b.s.4.0.x.J.G.J.b.z.F s e b B d 7 ; y d S b.oXOXOXZ.OX%X$X#X#X#X#X$X=X2X",
"OX@X#XOXOXOX%X=X%X@XA.Z.@X+X).l.3.=.i q u a s v T Y ] N N { [ 1 d g y y c c 6 o % e F g.F S d.T.~.].;X&XOXZ.%X=X#XA.A.@X#X=X2X2X",
"Z.@X@X@X@X%X$X#X@XOXOX#X$X>X4X3X;XR.d.4.N N D Z a 1 3 1 3 Y E 3 1 1 < > y V d O o + N U./.7XqX'.K.L.`.qX>XOX@X@XOXOX@X#X=X3X3X=X",
"@XOX@X#X@X$X#X@XOXOX@X%X=X1X;X;X}.qXeX{.Y.x.g.u.A g d d a y ; & ; < y y N 7.d + & y s.`.qXqXU.9.O.O.0.W.].oXOXZ.OX@X@X$X=X2X2X%X",
"Z.@XZ.Z.OX@X@XZ.@X#X@X%X XQ.h.q.q.L.qXxXtX9X[.~.I.x.f.a.0.F A c 0 e c c M M a l { } 4.d.k.w.:.Q ! W z a.W.XXZ.XX=X$XOXOX@X@XA.@X",
"Z.Z.Z.Z.OX@X@X#X#X#X@XoXn.4.-. ...1.Q.eXlXrX[.U.`.}.[.[.{.~.Q.z.S d w y y p ] [  ...X.o.o.o.~ Q W W U 3.N.OX#X$X#X#XOX@X$X*X#XZ.",
"Z.Z.Z.@X#X@X#X$X#X#XXXb.:.| ! / %.&.w.Q.[.!.h.:.1.`.dXlXnXlXqX~.x.V ; p a < a [ { o.~ ~ ~ 3 1 & $ $ $ -.V.@X%X$X@X@X@X#X@X<X=X#X",
"@XA.@X#X#X$X*X%X#XXXj.| W ^ ( %.%.' &.<.0.F -.} O.q.}.mXZXlXqXQ.z.c * > 1 w ; l } 3 3 y M D D S d X . g B.$X@XZ.@X$X%X#X$X*X*X%X",
"@X@X#X#X*X$X$X@X+X8.: , U / ( _ ` ` ` $...} { { T N h.qXnXdX].G.B @ ; i p z B d + d Z t.y.u.z.G.K.d.y 6.C.@X@X@X%X%X%X#X#X%X=X=X",
"@X@X$X%X=X$X@XA.B.X . X X & E ( _ _ _ $.$.X.o.{ a d N 7.K.H.a.x . + q q > y D D D t.y.u.u.G.H.~.9XwX7X X@XZ.@X#X*X%X*X#X#X*X=X=X",
"@X#X*X2X<X#X@XA.XX3.X X o o X & U Q ~ ~ ~ ~  .} C C l ; 6 6 o o 0 = * * 7 B t.u.u.u.z.H.T.Q.~.7XkXzXCXcX6X#X#X#X#X#X>X%X=X=X$X@X",
"#X=X=X<X%X#X@XA.#XXXp.s t t e # + $ y l ] a l 1.K.4.< = - ; y a y d c A t.f.g.z.G.G.~.7XwXwXwXwXzXCXzXlXlX-X#X#X@X@X%X$X%X%X#X@X",
"=X>X=X%X#X@XZ.@X+X@XR.k.L.L.w.N 1 & 7 B 7.4.9.Y.8Xe.;.;.<.9.9.G a.g.G.H.I.I.~.I.~.~.7XzXAXBXcXzXAXtX~.P.Q.^..X#X@XOX#X$X%X#X#X#X",
"4X,X%X#X@XA.@X@X#X_.'.tXNXdX[.d.+.E 1 l C 0.h.J.K.F.Y.8XtXtXwX7X7X7X7XwXwXtXwXwX7X9XkXAXzXrXwXkXCXtXH.Z B 7.b..X@XOX#X$X*X#X@X$X",
"<X*X$X@XA.@X#X+XB.E.zXxXrX^.S.<.{ ( ^ Q 3 l z z z M C K.9XlXcXCXzXzXlXtXwXqXqXzXzXzXCXCXqX~.Q.].wXrXI.x o 6 N b.+X+X$X$X$X@X#X=X",
"@X$X@XA.@X@XXXn.k.tXhX}.Q.z.;.~ _ _ ) ( ^ ~ ~ E E 3 1 M h./.9XqX9X{.U.G.g.a.H.}.zXAXCXkX~.z.F t.x.!.P.Z o 6 = N b.$X$X@X@X#X$X=X",
"$X$X@X@X@X+Xn.F.8XuX!.W.g.4.{ ( _ ` %._ $.^ ~ Q { E 3 w c a.H.P.x.f.B 8 e 7 A H.9XtXrX/.x.A 7 6 8 Z F c o 4 @ > :.R.<X$XA.A.*X=X",
"$X@XA.@X+X X'.tXqXQ.g.7.V l ~ ^ _ _ _ $.( X.~ { E E l p = 7 x b x 7 4 4 5 * s a.I.^.^.H.y.x 4 9 4 s x 4 O O O u u 5.B.$X$X@X+X$X",
"$X#X@X#X#X X].].P.7.f a { ^ ^ %._ _ $.$.X..... .[ [ Y 2 < = @ o O O O 0 0 0 9 c Z t.t.Z x 0 t 0 0 f 6.s 9 O 9 >.T g j.+X@X@XA.+X",
"#X%X#X@X#X#XW.0.;.l =. .$.%.) %.$.$./ $./ R U | [ Y Y a p ; ; @ O O O O % 4 0 5 6 4 6 6 5 t t r r r 6.6.r % 9 >.k.a 3.B.@XA.@X@X",
"$X%X#X@X#X$X@Xv.>.j.w.@.$.%.$.$.$.X.X.....R [ | R R Y 2 p ; ; * * O O O 4 0 5 0 0 0 0 q r t t t r 0 v c.v % - n M.8.v.+X#XA.@X$X",
"#X$X@X#X%X$X@X@XC.XXj.T T {  .X.X.......{ 3.:.U R Y Y p p ; ; 0 * @ O O O O * 9 0 r r r r r t 0 r 9 O c.p.g N c.A.+X@X$X@XA.@X$X",
"#X@XA.$X=X#XA.Z.@X#X#XV.v.p.;.O.+.@.} } =.b.,.3 2 2 2 i > > ; * @ @ @ @ + O @ O 9 9 0 r r r t r s v 3.m.XXN.XX#X#X$X%X%X@X@X#X$X",
"$X@X@X=X%X@X#X#X#X%X#XA.#X*X|.B.v.p.3.>.c.C.c.f g g y w = * + 5 + * + + e y d g g v v n >.8.l.b.m.V.XX#X#X#X@X@X$X,X>X#XZ.#X#X#X",
"#X@X#X*X#X#X#X#X#X$X@XZ.$X=X$X@X@XoXXXC.Z.OX|.M.b.v.v.4.h # h h j j k j C k.c.v.n.m.N.V.+X=X2X*X$X#X@X$X#XOX#X%X%X,X=X@X@X#X#X#X",
"@XOX*X%X#X#X#X@X@X@XA.@X#X$X@X@X#X#XoXZ.Z.OX%X%X=X*X%XG.      J L P P L I W.A.A.A.@X@X+X=X2X%X#X#X@X@X#XOX@X*X=X>X*X@X@X*X$X#X#X",
"#X#X@X#X#X$X$X#X@X@X#X%X=X#X#X#X%X#XOXOXZ.OXOX#X%X,X].t.      H H P P L J i.(.Z.OX@X#X#X#X%X#X#X#X@X#XOXOX$X=X*X$X@XZ.@X$X$X#X@X",
"@X@XOX#X$X%X#X#X@X+X$X%X#X@X#X@X$X*X%X@XOX@X#X#X%X,XI.m       H H P P P J J i.(.#X$X$X$X$X$X#X#X#X#X#XOX#X%X$X#X@XZ.@X#X#X#X#XA.",
"@XZ.Z.#X%X=X@X@X@X@X#X#X@XOX#XOX#X2X3X%XOX#X=X$X=X&XH.G k     J L J L P K K i.(.=X>X*X*X%X$X@X@X$X*X#X@X$X%X@XOXZ.A.$X$X$X#X@X@X",
"@XZ.OX#X$X@X@X#X@XZ.OX@X#X@X#X@X*X3X=X$XOX@X#XOX@XOXoX(.Q.I.G.G.J.K.K.I.W.W.(.&X3X2X3X>X$X@XZ.Z.$X%X#XOXOX@XOXOX#X#X2X%X#X@X@X@X",
"@X@X@X#X#X@X@X@X@XZ.@X@X#X$X$X#X%X=X%X@XOX@X@X@XOX#X%X%X#XOXC.XXoX%X&X&XoX@X=X,X,X=X2X=X@X@XA.Z.#X#X#XOXOX@XOX#X#X=X>X%X@X@X#X#X",
"#X$X#X@X#X#XZ.@XOXOXOXOX#X%X*X%X#X#X#X@X@XZ.@X@X@X%X$X#XOXZ.OX$X$X*X=X#X#X#X,X4X>X$X%X$X@X@XA.@X#X#X#XOX#X@X$X#X*X3X%X#X@X#X$X#X",
"%X=X@XOXOX@XZ.OXOXOXZ.OX#X#X#X#X#X#X$X%XZ.Z.OX@X#XOX#X#X#X#X#X$X$X#X$X@X@X#X%X%X#X@X#X#X#X#X@X#X$X=X=X%X$XOX#X%X3X%X@X@X@X@X$X=X",
"=X%XOXZ.OX@XOXOXOXZ.Z.@X#X@X@X@X#X%X*X*XA.@X@X#X@X#X#X#X#XOX#X#X#X#X#X#X#X$X$X@X@X@X#X$X$X@X@X#X%X=X=X%X#XOX@X$X=X#XOX@X@X#X*X>X"
};
