/* XPM */
static char *result[] = {
/* columns rows colors chars-per-pixel */
"64 64 211 2 ",
"   c #18130E",
".  c #0B0806",
"X  c #3E3327",
"o  c #7C1919",
"O  c #7E0C11",
"+  c #553E3E",
"@  c #703536",
"#  c #684B39",
"$  c #733E42",
"%  c #3D4D63",
"&  c #4C4D4D",
"*  c #4A4646",
"=  c #4C4456",
"-  c #545454",
";  c #5C5C5C",
":  c #575657",
">  c #5E4243",
",  c #644A45",
"<  c #794C4E",
"1  c #734445",
"2  c #6C534D",
"3  c #445167",
"4  c #465168",
"5  c #49586C",
"6  c #52576A",
"7  c #5C6A73",
"8  c #646464",
"9  c #6B6A6A",
"0  c #786B66",
"q  c #737474",
"w  c #7B7B7B",
"e  c #6D7270",
"r  c #775667",
"t  c #8C0C0C",
"y  c #940A0A",
"u  c #9A0B0C",
"i  c #960506",
"p  c #92180A",
"a  c #810E12",
"s  c #9B0F11",
"d  c #9E1213",
"f  c #971713",
"g  c #871415",
"h  c #A20C0E",
"j  c #A30E10",
"k  c #A41315",
"l  c #AA1719",
"z  c #A61A1B",
"x  c #AA1B1C",
"c  c #97270C",
"v  c #B61E21",
"b  c #9E2D2D",
"n  c #9C3737",
"m  c #A92627",
"M  c #B6292B",
"N  c #BA2628",
"B  c #BE2F31",
"V  c #B33537",
"C  c #AC3638",
"Z  c #AC3515",
"A  c #C2282B",
"S  c #C72E30",
"D  c #C53738",
"F  c #C5393B",
"G  c #C93537",
"H  c #D23235",
"J  c #DB3A3E",
"K  c #D53539",
"L  c #9A5F0C",
"P  c #99501B",
"I  c #BC560D",
"U  c #BF5A13",
"Y  c #BB5815",
"T  c #B24C09",
"R  c #9F6110",
"E  c #A46312",
"W  c #A6630F",
"Q  c #985522",
"!  c #B57B38",
"~  c #A94235",
"^  c #C25B17",
"/  c #C05A0E",
"(  c #C9651C",
")  c #DC4337",
"_  c #D6772B",
"`  c #D57B2F",
"'  c #D83C40",
"]  c #C93E42",
"[  c #E33F43",
"{  c #825454",
"}  c #9B5556",
"|  c #854C4D",
" . c #A74646",
".. c #B74446",
"X. c #B6585A",
"o. c #AE5650",
"O. c #906E56",
"+. c #956A6A",
"@. c #8E7778",
"#. c #8F7375",
"$. c #A57676",
"%. c #C84446",
"&. c #DD4548",
"*. c #DE5456",
"=. c #D45254",
"-. c #E44246",
";. c #E54549",
":. c #EA494D",
">. c #E7484B",
",. c #E04E51",
"<. c #EA4C50",
"1. c #ED5255",
"2. c #EC5B5E",
"3. c #E45557",
"4. c #E25447",
"5. c #EA6456",
"6. c #DD5D63",
"7. c #ED5D61",
"8. c #E25E61",
"9. c #F45E62",
"0. c #D36266",
"q. c #E16269",
"w. c #E86367",
"e. c #F36265",
"r. c #F66569",
"t. c #F5696C",
"y. c #F96A6E",
"u. c #F9676B",
"i. c #FA6C70",
"p. c #F66D71",
"a. c #F67679",
"s. c #E07276",
"d. c #7F827D",
"f. c #DF8B3F",
"g. c #E5883B",
"h. c #A58C73",
"j. c #D78645",
"k. c #DA8A47",
"l. c #DF965B",
"z. c #E68E43",
"x. c #EC9246",
"c. c #EC954A",
"v. c #F1964A",
"b. c #F59D53",
"n. c #E4945A",
"m. c #CC986A",
"M. c #D09D6D",
"N. c #E09F66",
"B. c #C6A27D",
"V. c #E6A56C",
"C. c #E8A972",
"Z. c #F9B77B",
"A. c #F5B174",
"S. c #6F7D84",
"D. c #55738A",
"F. c #768185",
"G. c #778A99",
"H. c #6E8490",
"J. c #7A92A5",
"K. c #848484",
"L. c #8B8C8C",
"P. c #939393",
"I. c #9E9E9E",
"U. c #92918C",
"Y. c #B58686",
"T. c #AE9D88",
"R. c #859CAC",
"E. c #97ACB9",
"W. c #ACAEAE",
"Q. c #A0A0A0",
"!. c #AEB0B0",
"~. c #B4B5B5",
"^. c #BBBABB",
"/. c #B8B8B9",
"(. c #C99999",
"). c #D3B08B",
"_. c #E7B788",
"`. c #FFBE81",
"'. c #F5BE8C",
"]. c #C5B8B8",
"[. c #FDC38D",
"{. c #F6C08C",
"}. c #FFC995",
"|. c #FFCD9D",
" X c #FAC593",
".X c #EEC297",
"XX c #CAC0BF",
"oX c #FECFA1",
"OX c #FFD1A3",
"+X c #FFD5AE",
"@X c #FFD7B1",
"#X c #A7BAC5",
"$X c #B2C3CB",
"%X c #BCCAD4",
"&X c #C4C5C5",
"*X c #CDCDCD",
"=X c #C6C8C8",
"-X c #CBD4D9",
";X c #D3D3D3",
":X c #DADADA",
">X c #D8D7D8",
",X c #D0CDCD",
"<X c #D1DBE2",
"1X c #DBE3E8",
"2X c #E4E4E4",
"3X c #E6ECEE",
"4X c #ECEBEB",
"5X c #F1F2F2",
"6X c #FEFEFE",
"7X c #E8EEF0",
"8X c None",
/* pixels */
"8X8X8X8X8X8X8X8X8X8X8X8X8X8X8X8X8X8X8X8X8X8X8X8X8X8X8X8X8X8X8X8X8X8X8X8X8X8X8X8X8X8X8X8X8X8X8X8X8X8X8X8X8X8X8X8X8X8X8X8X8X8X8X8X",
"8X8X8X8X8X8X8X8X8X8X8X8X8X8X8X8X8X8X8X8X8X8X8X8X8Xl l l l l x l l x l k 8X8X8X8X8X8X8X8X8X8X8X8X8X8X8X8X8X8X8X8X8X8X8X8X8X8X8X8X",
"8X8X8X8X8X8X8X8X8X8X8X8X8X8X8X8X8X8X8X8X8X8X8Xk j K ;.;.>.[ >.[ ;.;.;.' x z 8X8X8X8X8X8X8X8X8X8X8X8X8X8X8X8X8X8X8X8X8X8X8X8X8X8X",
"8X8X8X8X8X8X8X8X8X8X8X8X8X8X8X8X8X8X8X8X8X8Xk K [ -.:.<.:.:.<.<.:.:.1.7.<.' k 8X8X8X8X8X8X8X8X8X8X8X8X8X8X8X8X8X8X8X8X8X8X8X8X8X",
"8X8X8X8X8X8X8X8X8X8X8X8X8X8X8X8X8X8X8X8X8Xu K ;.;.:.8.q.q.q.q.q.q.q.s.q.8.6.] y 8X8X8X8X8X8X8X8X8X8X8X8X8X8X8X8X8X8X8X8X8X8X8X8X",
"8X8X8X8X8X8X8X8X8X8X8X8X8X8X8X8X8X8X8X8X8Xu J [ -.7.r 4 4 4 4 4 5 7 5 3 4 4 = O 8X8X8X8X8X8X8X8X8X8X8X8X8X8X8X8X8X8X8X8X8X8X8X8X",
"8X8X8X8X8X8X8X8X8X8X8X8X8X8X8X8X8X8X8X8Xs i u j k , G.#X#X$X#X$X$X%X$X$X$X#XR.= g 8X8X8X8X8X8X8X8X8X8X8X8X8X8X8X8X8X8X8X8X8X8X8X",
"8X8X8X8X8X8X8X8X8X8X8X8X8X8X8X8X8X8X8X8Xy N ) G ] = R.<X5X7X5X1X-X<X7X7X7X1X#X% a 8X8X8X8X8X8X8X8X8X8X8X8X8X8X8X8X8X8X8X8X8X8X8X",
"8X8X8X8X8X8X8X8X8X8X8X8X8X8X8X8X8X8X8X8Xf -.y.1.e.6 J.<X3X3X1XE.D.R.-X3X3X1X#X% O 8X8X8X8X8X8X8X8X8X8X8X8X8X8X8X8X8X8X8X8X8X8X8X",
"8X8X8X8X8X8X8X8X8X8X8X8X8X8X8X8X8X8X8X8Xy N S N B O.H.#X<X<XE.q 0 0 R.-X<X%XH.# a 8X8X8X8X8X8X8X8X8X8X8X8X8X8X8X8X8X8X8X8X8X8X8X",
"8X8X8X8X8X8X8X8X8X8X8X8X8X8X8X8X8X8X8X8Xp p c c Z n.h.G.J.J.H.h.A.B.F.J.J.G.0 P c 8X8X8X8X8X8X8X8X8X8X8X8X8X8X8X8X8X8X8X8X8X8X8X",
"8X8X8X8X8X8X8X8X8X8X8X8X8X8X8X8X8X8X8X8X8XL ! E g.[.OXh.7 7 T.|.|.OX).e e d.'.U 8X8X8X8X8X8X8X8X8X8X8X8X8X8X8X8X8X8X8X8X8X8X8X8X",
"8X8X8X8X8X8X8X8X8X8X8X8X8X8X8X8X8X8X8X8X8XL ! R f.[.OX).B._.|.|.|.|.|..XB.).{.U 8X8X8X8X8X8X8X8X8X8X8X8X8X8X8X8X8X8X8X8X8X8X8X8X",
"8X8X8X8X8X8X8X8X8X8X8X8X8X8X8X8X8X8X8X8X8XE R W z.[.|.2   O.OXOX|.|.|.B.  X C.( 8X8X8X8X8X8X8X8X8X8X8X8X8X8X8X8X8X8X8X8X8X8X8X8X",
"8X8X8X8X8X8X8X8X8X8X8X8X8X8X8X8X8X8X8X8XU f.x.x.b.[.|.# . O.|.|.|.|.|.B.  X _.x.^ 8X8X8X8X8X8X8X8X8X8X8X8X8X8X8X8X8X8X8X8X8X8X8X",
"8X8X8X8X8X8X8X8X8X8X8X8X8X8X8X8X8X8X8X8X/ g.( x.b.[.[.V.m.C.[.`.[.Z.`.Z.m.N.Z.v./ 8X8X8X8X8X8X8X8X8X8X8X8X8X8X8X8X8X8X8X8X8X8X8X",
"8X8X8X8X8X8X8X8X8X8X8X8X8X8X8X8X8X8X8X8XI z.z.v.b.[.}. X}.}.}.}.}. X X X}.}.'.c.U 8X8X8X8X8X8X8X8X8X8X8X8X8X8X8X8X8X8X8X8X8X8X8X",
"8X8X8X8X8X8X8X8X8X8X8X8X8X8X8X8X8X8X8X8X8X_ _ c.b.[.l.Z.OXOXOXOXoXoXoXoXoXoX[._ 8X8X8X8X8X8X8X8X8X8X8X8X8X8X8X8X8X8X8X8X8X8X8X8X",
"8X8X8X8X8X8X8X8X8X8X8X8X8X8X8X8X8X8X8X8X8XU _ x.b.[.C.k.j.j.j.C.oX|.OX@X@XOX'.Y 8X8X8X8X8X8X8X8X8X8X8X8X8X8X8X8X8X8X8X8X8X8X8X8X",
"8X8X8X8X8X8X8X8X8X8X8X8X8X8X8X8X8X8X8X8X8XI _ v.b.[.oXV.j.j.j.C.oXoX@X@X@XoXN.Y 8X8X8X8X8X8X8X8X8X8X8X8X8X8X8X8X8X8X8X8X8X8X8X8X",
"8X8X8X8X8X8X8X8X8X8X8X8X8X8X8X8X8X8X8X8X8X8XT g.b.[.oXoX|.[.}.oXoXOX@X+X@X'.Y 8X8X8X8X8X8X8X8X8X8X8X8X8X8X8X8X8X8X8X8X8X8X8X8X8X",
"8X8X8X8X8X8X8X8X8X8X8X8X8X8X8X8X8X8X6X8X8X8X/ g.v.Z.|.oX[.`.}.oX|.oX+X@XoXC.Y 8X8X8X8X8X8X8X8X8X8X8X8X8X8X8X8X8X8X8X8X8X8X8X8X8X",
"8X8X8X8X8X8X8X8X8X8X8X8X8X8X8X8X8X6X8X8X8X8X8X/ g.z.Z.}.|.|.oXOXoXoX}.'.V.^ 8X8X8X8X8X8X8X8X8X8X8X8X8X8X8X8X8X8X8X8X8X8X8X8X8X8X",
"8X8X8X8X8X8X8X8X8X8X8X8X8X8X8X8X8X8X8X8X8X8X8X8XU I ` c.A.{.'.{.'.'.N.Y U 8X8X8X8X8X8X8X8X8X8X8X8X8X8X8X8X8X8X8X8X8X8X8X8X8X8X8X",
"8X8X8X8X8X8X8X8X8X8X8X8X8X8X8X8X8X8X8X8X8X8X8X8X8X, P I Y ^ ^ ^ ( Y Q , 8X8X8X8X8X8X8X8X8X8X8X8X8X8X8X8X8X8X8X8X8X8X8X8X8X8X8X8X",
"8X8X8X8X8X8X8X8X8X8X8X8X8X8X8X8X8X8X8X8X8X8X8X8X: !.0 ~ ) 4.5.5.5.o.0 !.- 8X8X8X8X8X8X8X8X8X8X8X8X8X8X8X8X8X8X8X8X8X8X8X8X8X8X8X",
"8X8X8X8X8X8X8X8X8X8X8X8X8X8X8X8X8X8X8X8X8X8Xi t + =X*X+.$ < < < < #.*X&X+ t y 8X8X8X8X8X8X8X8X8X8X8X8X8X8X8X8X8X8X8X8X8X8X8X8X8X",
"8X8X8X8X8X8X8X8X8X8X8X8X8X8X8X8X8X8X8X8X8Xu A A ~ @.*X=XW.!.!.!.W.=X;X@.X.%.G d 8X8X8X8X8X8X8X8X8X8X8X8X8X8X8X8X8X8X8X8X8X8X8X8X",
"8X8X8X8X8X8X8X8X8X8X8X8X8X8X8X8X8X8X8X8X8Xu ' :.1.X.@.*X5X$XL.L.P.L.@.X.y.i.e.u 8X8X8X8X8X8X8X8X8X8X8X8X8X8X8X8X8X8X8X8X8X8X8X8X",
"8X8X8X8X8X8X8X8X8X8X8X8X8X8X8X8X8X8X8X8X8Xv [ 1.u.t.< !.5XL., @ @ { o.y.y.y.e.D 8X8X8X8X8X8X8X8X8X8X8X8X8X8X8X8X8X8X8X8X8X8X8X8X",
"8X8X8X8X8X8X8X8X8X8X8X8X8X8X8X8X8X8X8X8Xu ' >.r.i.t.< !.5XL.} G M t.y.y.y.i.t.2.d 8X8X8X8X8X8X8X8X8X8X8X8X8X8X8X8X8X8X8X8X8X8X8X",
"8X8X8X8X8X8X8X8X8X8X8X8X8X8X8X8X8X8X8X8Xx -.1.e.3.7.< !.5XU.} G M p.y.y.e.3.e.7.M 8X8X8X8X8X8X8X8X8X8X8X8X8X8X8X8X8X8X8X8X8X8X8X",
"8X8X8X8X8X8X8X8X8X8X8X8X8X8X8X8X8X8X8Xu ' >.e.t.x G 1 !.5XL.} G M p.y.i.,.k -.t.7.d 8X8X8X8X8X8X8X8X8X8X8X8X8X8X8X8X8X8X8X8X8X8X",
"8X8X8X8X8X8X8X8X8X8X8X8X8X8X8X8X8X8X8Xu ' >.r.2.x H 1 !.5XL.} F M y.y.i.,.j -.t.e.d 8X8X8X8X8X8X8X8X8X8X8X8X8X8X8X8X8X8X8X8X8X8X",
"8X8X8X8X8X8X8X8X8X8X8X8X8X8X8X8X8X8X8Xu J :.7.N S ;.1 !.5XL.} F M y.y.y.*.k 3.p.7.d 8X8X8X8X8X8X8X8X8X8X8X8X8X8X8X8X8X8X8X8X8X8X",
"8X8X8X8X8X8X8X8X8X8X8X8X8X8X8X8X8X8X8Xx ;.:.2.k H ;.1 !.5XL.} F M y.y.i.3.m 3.r.7.d 8X8X8X8X8X8X8X8X8X8X8X8X8X8X8X8X8X8X8X8X8X8X",
"8X8X8X8X8X8X8X8X8X8X8X8X8X8X8X8X8X8X8XV w.3.9.k H ;.=.#.w : } G M y.y.i.6.m -.r.7.d 8X8X8X8X8X8X8X8X8X8X8X8X8X8X8X8X8X8X8X8X8X8X",
"8X8X8X8X8X8X8X8X8X8X8X8X8X8X8X8X8X8X8XC q.7.2.l H ;.9.0.X.X.0.F M y.y.a.*.k -.t.7.d 8X8X8X8X8X8X8X8X8X8X8X8X8X8X8X8X8X8X8X8X8X8X",
"8X8X8X8X8X8X8X8X8X8X8X8X8X8X8X8X8X8X8Xm q.2.9.k H >.9.t.y.y.i.D M t.p.a.*.k -.u.9.d 8X8X8X8X8X8X8X8X8X8X8X8X8X8X8X8X8X8X8X8X8X8X",
"8X8X8X8X8X8X8X8X8X8X8X8X8X8X8X8X8X8X8Xm B A S u H >.e.i.y.u.i.D M a.a.y.,.u A G D u 8X8X8X8X8X8X8X8X8X8X8X8X8X8X8X8X8X8X8X8X8X8X",
"8X8X8X8X8X8X8X8X8X8X8X8X8X8X8X8X8X8X8Xo n  . . ...&.9.y.y.y.i.D V a.y.y.,.f n f t o 8X8X8X8X8X8X8X8X8X8X8X8X8X8X8X8X8X8X8X8X8X8X",
"8X8X8X8X8X8X8X8X8X8X8X8X8X8X8X8X8X8X8X: ^.;X2X2X0 ..9.u.y.u.i.D M y.y.y.,.b ].8X8X* 8X8X8X8X8X8X8X8X8X8X8X8X8X8X8X8X8X8X8X8X8X8X",
"8X8X8X8X8X8X8X8X8X8X8X8X8X8X8X8X8X8X8X; ~.,X4X2X9 ..9.y.y.y.i.D M y.y.i.,.b &X8X8X* 8X8X8X8X8X8X8X8X8X8X8X8X8X8X8X8X8X8X8X8X8X8X",
"8X8X8X8X8X8X8X8X8X8X8X8X8X8X8X8X8X8X8X8X8 ~.=X;X0 %.9.y.y.y.i.] B i.y.i.,.d 8X8X& 8X8X8X8X8X8X8X8X8X8X8X8X8X8X8X8X8X8X8X8X8X8X8X",
"8X8X8X8X8X8X8X8X8X8X8X8X8X8X8X8X8X8X8X8X8X; ; ;  .&.2.r.e.t.e.2.2.r.t.t.&.g * & 8X8X8X8X8X8X8X8X8X8X8X8X8X8X8X8X8X8X8X8X8X8X8X8X",
"8X8X8X8X8X8X8X8X8X8X8X8X8X8X8X8X8X8X8X8X8X8X8Xo u k l l x z z z z z z z k t 8X8X8X8X8X8X8X8X8X8X8X8X8X8X8X8X8X8X8X8X8X8X8X8X8X8X",
"8X8X8X8X8X8X8X8X8X8X8X8X8X8X8X8X8X8X8X8X8X8X8X{ $.Y.(.(.(.+.1 +.Y.Y.Y.(.Y.{ 8X8X8X8X8X8X8X8X8X8X8X8X8X8X8X8X8X8X8X8X8X8X8X8X8X8X",
"8X8X8X8X8X8X8X8X8X8X8X8X8X8X8X8X8X8X8X8X8X8X8Xw /.;X3X5X=X/.=X!.W.*X:X5X;Xd.8X8X8X8X8X8X8X8X8X8X8X8X8X8X8X8X8X8X8X8X8X8X8X8X8X8X",
"8X8X8X8X8X8X8X8X8X8X8X8X8X8X8X8X8X8X8X8X8X8X8Xw /.;X2X4XI.^.6X^.P.*X;X5X;Xw 8X8X8X8X8X8X8X8X8X8X8X8X8X8X8X8X8X8X8X8X8X8X8X8X8X8X",
"8X8X8X8X8X8X8X8X8X8X8X8X8X8X8X8X8X8X8X8X8X8X8Xw /.,X2X5XQ.^.6X/.P.*X>X5X;Xw 8X8X8X8X8X8X8X8X8X8X8X8X8X8X8X8X8X8X8X8X8X8X8X8X8X8X",
"8X8X8X8X8X8X8X8X8X8X8X8X8X8X8X8X8X8X8X8X8X8X8Xw /.*X2X5XQ./.6X^.P.*X;X5X*Xw 8X8X8X8X8X8X8X8X8X8X8X8X8X8X8X8X8X8X8X8X8X8X8X8X8X8X",
"8X8X8X8X8X8X8X8X8X8X8X8X8X8X8X8X8X8X8X8X8X8X8Xw /.*X2X5XQ.^.6X^.U.*X;X5X;Xw 8X8X8X8X8X8X8X8X8X8X8X8X8X8X8X8X8X8X8X8X8X8X8X8X8X8X",
"8X8X8X8X8X8X8X8X8X8X8X8X8X8X8X8X8X8X8X8X8X8X8Xw /.*X2X5XI.^.6X/.P.*X;X5X;Xw 8X8X8X8X8X8X8X8X8X8X8X8X8X8X8X8X8X8X8X8X8X8X8X8X8X8X",
"8X8X8X8X8X8X8X8X8X8X8X8X8X8X8X8X8X8X8X8X8X8X8Xw /.*X2X5XQ.^.6X^.P.=X:X5X:XL.8X8X8X8X8X8X8X8X8X8X8X8X8X8X8X8X8X8X8X8X8X8X8X8X8X8X",
"8X8X8X8X8X8X8X8X8X8X8X8X8X8X8X8X8X8X8X8X8X8X8Xw ~.*X2X5XQ.^.6X^.P.,X2X5X>XP.8X8X8X8X8X8X8X8X8X8X8X8X8X8X8X8X8X8X8X8X8X8X8X8X8X8X",
"8X8X8X8X8X8X8X8X8X8X8X8X8X8X8X8X8X8X8X8X8X8X8Xw /.2X4X4XQ./.6X/.P.;X4X4X>XI.8X8X8X8X8X8X8X8X8X8X8X8X8X8X8X8X8X8X8X8X8X8X8X8X8X8X",
"8X8X8X8X8X8X8X8X8X8X8X8X8X8X8X8X8X8X8X8X8X8X8Xw ~.P.F.K.; ~.6X^.K.W.L.I.K.8 8X8X8X8X8X8X8X8X8X8X8X8X8X8X8X8X8X8X8X8X8X8X8X8X8X8X",
"8X8X8X8X8X8X8X8X8X8X8X8X8X8X8X8X8X8X8X8X8X8X8Xw w 9 ; w L.L.*X^.9 ; ; 9 L.K.: 8X8X8X8X8X8X8X8X8X8X8X8X8X8X8X8X8X8X8X8X8X8X8X8X8X",
"8X8X8X8X8X8X8X8X8X8X8X8X8X8X8X8X8X8X8X8X8X8X8X8 ; q d.P.&X@.w I.; 8 w K.!.~.& 8X8X8X8X8X8X8X8X8X8X8X8X8X8X8X8X8X8X8X8X8X8X8X8X8X",
"8X8X8X8X8X8X8X8X8X8X8X8X8X8X8X8X8X8X8X8X8X8X8X& ; 8 8 8 F.9 : 8X- 8 8 8 q K.* 8X8X8X8X8X8X8X8X8X8X8X8X8X8X8X8X8X8X8X8X8X8X8X8X8X",
"8X8X8X8X8X8X8X8X8X8X8X8X8X8X8X8X8X8X8X8X8X8X8X- & & & & & & 8X8X& & & & * & & 8X8X8X8X8X8X8X8X8X8X8X8X8X8X8X8X8X8X8X8X8X8X8X8X8X",
"8X8X8X8X8X8X8X8X8X8X8X8X8X8X8X8X8X8X8X8X8X8X8X8X8X8X8X8X8X8X8X8X8X8X8X8X8X8X8X8X8X8X8X8X8X8X8X8X8X8X8X8X8X8X8X8X8X8X8X8X8X8X8X8X",
"8X8X8X8X8X8X8X8X8X8X8X8X8X8X8X8X8X8X8X8X8X8X8X8X8X8X8X8X8X8X8X8X8X8X8X8X8X8X8X8X8X8X8X8X8X8X8X8X8X8X8X8X8X8X8X8X8X8X8X8X8X8X8X8X",
"8X8X8X8X8X8X8X8X8X8X8X8X8X8X8X8X8X8X8X8X8X8X8X8X8X8X8X8X8X8X8X8X8X8X8X8X8X8X8X8X8X8X8X8X8X8X8X8X8X8X8X8X8X8X8X8X8X8X8X8X8X8X8X8X"
};
